<mxfile host="app.diagrams.net" agent="Mozilla/5.0 (Windows NT 10.0; Win64; x64) AppleWebKit/537.36 (KHTML, like Gecko) Chrome/132.0.0.0 Safari/537.36" version="26.0.11">
  <diagram name="Page-1" id="jRcl6FZSxMvIWIRrX9AH">
    <mxGraphModel dx="2408" dy="1826" grid="1" gridSize="10" guides="1" tooltips="1" connect="1" arrows="1" fold="1" page="1" pageScale="1" pageWidth="850" pageHeight="1100" math="0" shadow="0">
      <root>
        <mxCell id="0" />
        <mxCell id="1" parent="0" />
        <mxCell id="xi9Mz_VR1JznppL0f6Ep-2" value="" style="swimlane;startSize=0;labelBackgroundColor=none;fillColor=#f5f5f5;gradientColor=#b3b3b3;strokeColor=#666666;movable=0;resizable=0;rotatable=0;deletable=0;editable=0;locked=1;connectable=0;" parent="1" vertex="1">
          <mxGeometry x="-280" y="-280" width="1160" height="5200" as="geometry" />
        </mxCell>
        <mxCell id="xi9Mz_VR1JznppL0f6Ep-3" value="&lt;font style=&quot;font-size: 30px;&quot;&gt;&lt;b&gt;STOCK MARKET SIMULATOR SEQUENCE DIAGRAM&lt;/b&gt;&lt;/font&gt;" style="rounded=1;whiteSpace=wrap;html=1;labelBackgroundColor=none;fillColor=#FAE5C7;strokeColor=#0F8B8D;fontColor=#143642;movable=0;resizable=0;rotatable=0;deletable=0;editable=0;locked=1;connectable=0;" parent="xi9Mz_VR1JznppL0f6Ep-2" vertex="1">
          <mxGeometry x="120" y="80" width="920" height="110" as="geometry" />
        </mxCell>
        <mxCell id="aD2l0ft9Nl4M7q4JBBO3-2" value="SERVER" style="rounded=1;whiteSpace=wrap;html=1;movable=0;resizable=0;rotatable=0;deletable=0;editable=0;locked=1;connectable=0;labelBackgroundColor=none;fillColor=#FAE5C7;strokeColor=#0F8B8D;fontColor=#143642;" parent="1" vertex="1">
          <mxGeometry x="200" y="-40" width="120" height="60" as="geometry" />
        </mxCell>
        <mxCell id="aD2l0ft9Nl4M7q4JBBO3-3" value="DATABASE" style="rounded=1;whiteSpace=wrap;html=1;movable=0;resizable=0;rotatable=0;deletable=0;editable=0;locked=1;connectable=0;labelBackgroundColor=none;fillColor=#FAE5C7;strokeColor=#0F8B8D;fontColor=#143642;" parent="1" vertex="1">
          <mxGeometry x="357.5" y="-40" width="120" height="60" as="geometry" />
        </mxCell>
        <mxCell id="aD2l0ft9Nl4M7q4JBBO3-6" value="" style="endArrow=none;dashed=1;html=1;dashPattern=1 3;strokeWidth=2;rounded=0;entryX=0.414;entryY=0.94;entryDx=0;entryDy=0;entryPerimeter=0;movable=0;resizable=0;rotatable=0;deletable=0;editable=0;locked=1;connectable=0;labelBackgroundColor=none;strokeColor=#A8201A;fontColor=default;" parent="1" target="K8W4mu1u56R08WQ6Gbn_-11" edge="1">
          <mxGeometry width="50" height="50" relative="1" as="geometry">
            <mxPoint x="105" y="130" as="sourcePoint" />
            <mxPoint x="105" y="80" as="targetPoint" />
          </mxGeometry>
        </mxCell>
        <mxCell id="aD2l0ft9Nl4M7q4JBBO3-7" value="" style="html=1;points=[[0,0,0,0,5],[0,1,0,0,-5],[1,0,0,0,5],[1,1,0,0,-5]];perimeter=orthogonalPerimeter;outlineConnect=0;targetShapes=umlLifeline;portConstraint=eastwest;newEdgeStyle={&quot;curved&quot;:0,&quot;rounded&quot;:0};labelBackgroundColor=none;fillColor=#FAE5C7;strokeColor=#0F8B8D;fontColor=#143642;movable=0;resizable=0;rotatable=0;deletable=0;editable=0;locked=1;connectable=0;" parent="1" vertex="1">
          <mxGeometry x="95" y="80" width="15" height="4570" as="geometry" />
        </mxCell>
        <mxCell id="aD2l0ft9Nl4M7q4JBBO3-8" value="" style="html=1;points=[[0,0,0,0,5],[0,1,0,0,-5],[1,0,0,0,5],[1,1,0,0,-5]];perimeter=orthogonalPerimeter;outlineConnect=0;targetShapes=umlLifeline;portConstraint=eastwest;newEdgeStyle={&quot;curved&quot;:0,&quot;rounded&quot;:0};labelBackgroundColor=none;fillColor=#FAE5C7;strokeColor=#0F8B8D;fontColor=#143642;movable=0;resizable=0;rotatable=0;deletable=0;editable=0;locked=1;connectable=0;" parent="1" vertex="1">
          <mxGeometry x="255" y="80" width="15" height="4580" as="geometry" />
        </mxCell>
        <mxCell id="aD2l0ft9Nl4M7q4JBBO3-9" value="" style="endArrow=none;dashed=1;html=1;dashPattern=1 3;strokeWidth=2;rounded=0;exitX=0.5;exitY=1;exitDx=0;exitDy=0;movable=0;resizable=0;rotatable=0;deletable=0;editable=0;locked=1;connectable=0;labelBackgroundColor=none;strokeColor=#A8201A;fontColor=default;" parent="1" source="aD2l0ft9Nl4M7q4JBBO3-2" target="aD2l0ft9Nl4M7q4JBBO3-8" edge="1">
          <mxGeometry width="50" height="50" relative="1" as="geometry">
            <mxPoint x="400" y="130" as="sourcePoint" />
            <mxPoint x="450" y="80" as="targetPoint" />
          </mxGeometry>
        </mxCell>
        <mxCell id="aD2l0ft9Nl4M7q4JBBO3-10" value="" style="endArrow=none;dashed=1;html=1;dashPattern=1 3;strokeWidth=2;rounded=0;movable=0;resizable=0;rotatable=0;deletable=0;editable=0;locked=1;connectable=0;labelBackgroundColor=none;strokeColor=#A8201A;fontColor=default;" parent="1" edge="1">
          <mxGeometry width="50" height="50" relative="1" as="geometry">
            <mxPoint x="420" y="100" as="sourcePoint" />
            <mxPoint x="420" y="160" as="targetPoint" />
            <Array as="points">
              <mxPoint x="420" y="20" />
            </Array>
          </mxGeometry>
        </mxCell>
        <mxCell id="aD2l0ft9Nl4M7q4JBBO3-13" value="" style="html=1;points=[[0,0,0,0,5],[0,1,0,0,-5],[1,0,0,0,5],[1,1,0,0,-5]];perimeter=orthogonalPerimeter;outlineConnect=0;targetShapes=umlLifeline;portConstraint=eastwest;newEdgeStyle={&quot;curved&quot;:0,&quot;rounded&quot;:0};labelBackgroundColor=none;fillColor=#FAE5C7;strokeColor=#0F8B8D;fontColor=#143642;movable=0;resizable=0;rotatable=0;deletable=0;editable=0;locked=1;connectable=0;" parent="1" vertex="1">
          <mxGeometry x="410" y="80" width="15" height="4070" as="geometry" />
        </mxCell>
        <mxCell id="aD2l0ft9Nl4M7q4JBBO3-17" value="" style="endArrow=classic;html=1;rounded=0;movable=0;resizable=0;rotatable=0;deletable=0;editable=0;locked=1;connectable=0;labelBackgroundColor=none;strokeColor=#A8201A;fontColor=default;" parent="1" edge="1">
          <mxGeometry width="50" height="50" relative="1" as="geometry">
            <mxPoint x="270" y="316.0000000000001" as="sourcePoint" />
            <mxPoint x="415" y="316.0000000000001" as="targetPoint" />
          </mxGeometry>
        </mxCell>
        <mxCell id="aD2l0ft9Nl4M7q4JBBO3-24" value="Store user information" style="text;html=1;align=center;verticalAlign=middle;resizable=0;points=[];autosize=1;strokeColor=none;fillColor=none;movable=0;rotatable=0;deletable=0;editable=0;locked=1;connectable=0;labelBackgroundColor=none;fontColor=#143642;" parent="1" vertex="1">
          <mxGeometry x="265" y="286" width="140" height="30" as="geometry" />
        </mxCell>
        <mxCell id="aD2l0ft9Nl4M7q4JBBO3-30" value="Confirmation" style="html=1;verticalAlign=bottom;endArrow=open;dashed=1;endSize=8;curved=0;rounded=0;movable=0;resizable=0;rotatable=0;deletable=0;editable=0;locked=1;connectable=0;labelBackgroundColor=none;strokeColor=#A8201A;fontColor=default;" parent="1" edge="1">
          <mxGeometry relative="1" as="geometry">
            <mxPoint x="410" y="359.28999999999996" as="sourcePoint" />
            <mxPoint x="270" y="359.28999999999996" as="targetPoint" />
          </mxGeometry>
        </mxCell>
        <mxCell id="NemykxeRQMAvaqrrbPRz-1" value="User" style="shape=umlActor;verticalLabelPosition=bottom;verticalAlign=top;html=1;outlineConnect=0;movable=0;resizable=0;rotatable=0;deletable=0;editable=0;locked=1;connectable=0;labelBackgroundColor=none;fillColor=#FAE5C7;strokeColor=#0F8B8D;fontColor=#143642;" parent="1" vertex="1">
          <mxGeometry x="-120" y="160" width="80" height="120" as="geometry" />
        </mxCell>
        <mxCell id="NemykxeRQMAvaqrrbPRz-7" value="Alt" style="shape=umlFrame;whiteSpace=wrap;html=1;pointerEvents=0;movable=0;resizable=0;rotatable=0;deletable=0;editable=0;locked=1;connectable=0;labelBackgroundColor=none;fillColor=#FAE5C7;strokeColor=#0F8B8D;fontColor=#143642;" parent="1" vertex="1">
          <mxGeometry x="80" y="382" width="210" height="180" as="geometry" />
        </mxCell>
        <mxCell id="NemykxeRQMAvaqrrbPRz-8" value="[If stored Sucessfully]" style="text;html=1;align=center;verticalAlign=middle;resizable=0;points=[];autosize=1;strokeColor=none;fillColor=none;movable=0;rotatable=0;deletable=0;editable=0;locked=1;connectable=0;labelBackgroundColor=none;fontColor=#143642;" parent="1" vertex="1">
          <mxGeometry x="139" y="380" width="140" height="30" as="geometry" />
        </mxCell>
        <mxCell id="NemykxeRQMAvaqrrbPRz-9" value="Login page" style="html=1;verticalAlign=bottom;endArrow=open;dashed=1;endSize=8;curved=0;rounded=0;movable=0;resizable=0;rotatable=0;deletable=0;editable=0;locked=1;connectable=0;labelBackgroundColor=none;strokeColor=#A8201A;fontColor=default;" parent="1" edge="1">
          <mxGeometry relative="1" as="geometry">
            <mxPoint x="260" y="442" as="sourcePoint" />
            <mxPoint x="110" y="442" as="targetPoint" />
          </mxGeometry>
        </mxCell>
        <mxCell id="NemykxeRQMAvaqrrbPRz-10" value="Retry Signup" style="html=1;verticalAlign=bottom;endArrow=open;dashed=1;endSize=8;curved=0;rounded=0;movable=0;resizable=0;rotatable=0;deletable=0;editable=0;locked=1;connectable=0;labelBackgroundColor=none;strokeColor=#A8201A;fontColor=default;" parent="1" edge="1">
          <mxGeometry x="0.0075" relative="1" as="geometry">
            <mxPoint x="250" y="522" as="sourcePoint" />
            <mxPoint x="110" y="522" as="targetPoint" />
            <mxPoint as="offset" />
          </mxGeometry>
        </mxCell>
        <mxCell id="NemykxeRQMAvaqrrbPRz-11" value="[Else]" style="text;html=1;align=center;verticalAlign=middle;resizable=0;points=[];autosize=1;strokeColor=none;fillColor=none;movable=0;rotatable=0;deletable=0;editable=0;locked=1;connectable=0;labelBackgroundColor=none;fontColor=#143642;" parent="1" vertex="1">
          <mxGeometry x="110" y="460" width="50" height="30" as="geometry" />
        </mxCell>
        <mxCell id="NemykxeRQMAvaqrrbPRz-16" value="" style="endArrow=classic;html=1;rounded=0;movable=0;resizable=0;rotatable=0;deletable=0;editable=0;locked=1;connectable=0;labelBackgroundColor=none;strokeColor=#A8201A;fontColor=default;" parent="1" target="jaakjuPK3LjtoRiex82M-3" edge="1">
          <mxGeometry width="50" height="50" relative="1" as="geometry">
            <mxPoint x="270" y="1281" as="sourcePoint" />
            <mxPoint x="567.5" y="1281" as="targetPoint" />
          </mxGeometry>
        </mxCell>
        <mxCell id="NemykxeRQMAvaqrrbPRz-17" value="Fetch stock details" style="text;html=1;align=center;verticalAlign=middle;resizable=0;points=[];autosize=1;strokeColor=none;fillColor=none;movable=0;rotatable=0;deletable=0;editable=0;locked=1;connectable=0;labelBackgroundColor=none;fontColor=#143642;" parent="1" vertex="1">
          <mxGeometry x="435" y="1251" width="120" height="30" as="geometry" />
        </mxCell>
        <mxCell id="jaakjuPK3LjtoRiex82M-1" value="API" style="rounded=1;whiteSpace=wrap;html=1;movable=0;resizable=0;rotatable=0;deletable=0;editable=0;locked=1;connectable=0;labelBackgroundColor=none;fillColor=#FAE5C7;strokeColor=#0F8B8D;fontColor=#143642;" parent="1" vertex="1">
          <mxGeometry x="520" y="-40" width="120" height="60" as="geometry" />
        </mxCell>
        <mxCell id="jaakjuPK3LjtoRiex82M-2" value="" style="endArrow=none;dashed=1;html=1;dashPattern=1 3;strokeWidth=2;rounded=0;entryX=0.5;entryY=1;entryDx=0;entryDy=0;movable=0;resizable=0;rotatable=0;deletable=0;editable=0;locked=1;connectable=0;labelBackgroundColor=none;strokeColor=#A8201A;fontColor=default;" parent="1" source="jaakjuPK3LjtoRiex82M-3" target="jaakjuPK3LjtoRiex82M-1" edge="1">
          <mxGeometry width="50" height="50" relative="1" as="geometry">
            <mxPoint x="580" y="890" as="sourcePoint" />
            <mxPoint x="280" y="180" as="targetPoint" />
          </mxGeometry>
        </mxCell>
        <mxCell id="jaakjuPK3LjtoRiex82M-3" value="" style="html=1;points=[[0,0,0,0,5],[0,1,0,0,-5],[1,0,0,0,5],[1,1,0,0,-5]];perimeter=orthogonalPerimeter;outlineConnect=0;targetShapes=umlLifeline;portConstraint=eastwest;newEdgeStyle={&quot;curved&quot;:0,&quot;rounded&quot;:0};labelBackgroundColor=none;fillColor=#FAE5C7;strokeColor=#0F8B8D;fontColor=#143642;movable=0;resizable=0;rotatable=0;deletable=0;editable=0;locked=1;connectable=0;" parent="1" vertex="1">
          <mxGeometry x="575" y="1250" width="15" height="1430" as="geometry" />
        </mxCell>
        <mxCell id="jaakjuPK3LjtoRiex82M-42" value="" style="endArrow=classic;html=1;rounded=0;labelBackgroundColor=none;strokeColor=#A8201A;fontColor=default;movable=0;resizable=0;rotatable=0;deletable=0;editable=0;locked=1;connectable=0;" parent="1" edge="1">
          <mxGeometry width="50" height="50" relative="1" as="geometry">
            <mxPoint x="113.25" y="3990" as="sourcePoint" />
            <mxPoint x="250.75" y="3990" as="targetPoint" />
          </mxGeometry>
        </mxCell>
        <mxCell id="jaakjuPK3LjtoRiex82M-43" value="Delete Account" style="text;html=1;align=center;verticalAlign=middle;resizable=0;points=[];autosize=1;strokeColor=none;fillColor=none;labelBackgroundColor=none;fontColor=#143642;movable=0;rotatable=0;deletable=0;editable=0;locked=1;connectable=0;" parent="1" vertex="1">
          <mxGeometry x="120.75" y="3960" width="100" height="30" as="geometry" />
        </mxCell>
        <mxCell id="jaakjuPK3LjtoRiex82M-46" value="Alt" style="shape=umlFrame;whiteSpace=wrap;html=1;pointerEvents=0;labelBackgroundColor=none;fillColor=#FAE5C7;strokeColor=#0F8B8D;fontColor=#143642;movable=0;resizable=0;rotatable=0;deletable=0;editable=0;locked=1;connectable=0;" parent="1" vertex="1">
          <mxGeometry x="80" y="4180" width="210" height="160" as="geometry" />
        </mxCell>
        <mxCell id="jaakjuPK3LjtoRiex82M-49" value="[If details matched]" style="text;html=1;align=center;verticalAlign=middle;resizable=0;points=[];autosize=1;strokeColor=none;fillColor=none;labelBackgroundColor=none;fontColor=#143642;movable=0;rotatable=0;deletable=0;editable=0;locked=1;connectable=0;" parent="1" vertex="1">
          <mxGeometry x="132.25" y="4180" width="120" height="30" as="geometry" />
        </mxCell>
        <mxCell id="jaakjuPK3LjtoRiex82M-50" value="Account deleted Successful" style="html=1;verticalAlign=bottom;endArrow=open;dashed=1;endSize=8;curved=0;rounded=0;labelBackgroundColor=none;strokeColor=#A8201A;fontColor=default;movable=0;resizable=0;rotatable=0;deletable=0;editable=0;locked=1;connectable=0;" parent="1" edge="1">
          <mxGeometry x="0.035" y="-2" relative="1" as="geometry">
            <mxPoint x="254" y="4242" as="sourcePoint" />
            <mxPoint x="111" y="4242" as="targetPoint" />
            <mxPoint as="offset" />
          </mxGeometry>
        </mxCell>
        <mxCell id="jaakjuPK3LjtoRiex82M-51" value="Incorrect details" style="html=1;verticalAlign=bottom;endArrow=open;dashed=1;endSize=8;curved=0;rounded=0;entryX=1;entryY=0.926;entryDx=0;entryDy=0;entryPerimeter=0;labelBackgroundColor=none;strokeColor=#A8201A;fontColor=default;movable=0;resizable=0;rotatable=0;deletable=0;editable=0;locked=1;connectable=0;" parent="1" target="aD2l0ft9Nl4M7q4JBBO3-7" edge="1">
          <mxGeometry relative="1" as="geometry">
            <mxPoint x="253.75" y="4310" as="sourcePoint" />
            <mxPoint x="120" y="4310" as="targetPoint" />
            <mxPoint as="offset" />
          </mxGeometry>
        </mxCell>
        <mxCell id="jaakjuPK3LjtoRiex82M-52" value="[Else]" style="text;html=1;align=center;verticalAlign=middle;resizable=0;points=[];autosize=1;strokeColor=none;fillColor=none;labelBackgroundColor=none;fontColor=#143642;movable=0;rotatable=0;deletable=0;editable=0;locked=1;connectable=0;" parent="1" vertex="1">
          <mxGeometry x="110" y="4260" width="50" height="30" as="geometry" />
        </mxCell>
        <mxCell id="jaakjuPK3LjtoRiex82M-53" value="SERVER" style="rounded=1;whiteSpace=wrap;html=1;labelBackgroundColor=none;fillColor=#FAE5C7;strokeColor=#0F8B8D;fontColor=#143642;movable=0;resizable=0;rotatable=0;deletable=0;editable=0;locked=1;connectable=0;" parent="1" vertex="1">
          <mxGeometry x="208.5" y="4770" width="120" height="60" as="geometry" />
        </mxCell>
        <mxCell id="jaakjuPK3LjtoRiex82M-54" value="DATABASE" style="rounded=1;whiteSpace=wrap;html=1;labelBackgroundColor=none;fillColor=#FAE5C7;strokeColor=#0F8B8D;fontColor=#143642;movable=0;resizable=0;rotatable=0;deletable=0;editable=0;locked=1;connectable=0;" parent="1" vertex="1">
          <mxGeometry x="361.5" y="4770" width="120" height="60" as="geometry" />
        </mxCell>
        <mxCell id="jaakjuPK3LjtoRiex82M-56" value="API" style="rounded=1;whiteSpace=wrap;html=1;labelBackgroundColor=none;fillColor=#FAE5C7;strokeColor=#0F8B8D;fontColor=#143642;movable=0;resizable=0;rotatable=0;deletable=0;editable=0;locked=1;connectable=0;" parent="1" vertex="1">
          <mxGeometry x="525" y="4770" width="120" height="60" as="geometry" />
        </mxCell>
        <mxCell id="jaakjuPK3LjtoRiex82M-57" value="" style="endArrow=none;dashed=1;html=1;dashPattern=1 3;strokeWidth=2;rounded=0;labelBackgroundColor=none;strokeColor=#A8201A;fontColor=default;movable=0;resizable=0;rotatable=0;deletable=0;editable=0;locked=1;connectable=0;" parent="1" edge="1">
          <mxGeometry width="50" height="50" relative="1" as="geometry">
            <mxPoint x="584" y="4770" as="sourcePoint" />
            <mxPoint x="584.2500000000001" y="2678" as="targetPoint" />
          </mxGeometry>
        </mxCell>
        <mxCell id="y0E-Kujh_RQhsQJU_dFx-10" value="" style="endArrow=open;endFill=1;endSize=12;html=1;rounded=0;labelBackgroundColor=none;strokeColor=#A8201A;fontColor=default;movable=0;resizable=0;rotatable=0;deletable=0;editable=0;locked=1;connectable=0;" parent="1" edge="1">
          <mxGeometry width="160" relative="1" as="geometry">
            <mxPoint x="273" y="4028" as="sourcePoint" />
            <mxPoint x="413" y="4028" as="targetPoint" />
          </mxGeometry>
        </mxCell>
        <mxCell id="y0E-Kujh_RQhsQJU_dFx-11" value="Request user details" style="edgeLabel;html=1;align=center;verticalAlign=middle;resizable=0;points=[];labelBackgroundColor=none;fontColor=#143642;movable=0;rotatable=0;deletable=0;editable=0;locked=1;connectable=0;" parent="y0E-Kujh_RQhsQJU_dFx-10" vertex="1" connectable="0">
          <mxGeometry x="-0.0657" y="-1" relative="1" as="geometry">
            <mxPoint y="-16" as="offset" />
          </mxGeometry>
        </mxCell>
        <mxCell id="K8W4mu1u56R08WQ6Gbn_-8" value="user details" style="html=1;verticalAlign=bottom;endArrow=open;dashed=1;endSize=8;curved=0;rounded=0;labelBackgroundColor=none;strokeColor=#A8201A;fontColor=default;movable=0;resizable=0;rotatable=0;deletable=0;editable=0;locked=1;connectable=0;" parent="1" edge="1">
          <mxGeometry relative="1" as="geometry">
            <mxPoint x="413" y="4070" as="sourcePoint" />
            <mxPoint x="273" y="4070" as="targetPoint" />
            <mxPoint as="offset" />
          </mxGeometry>
        </mxCell>
        <mxCell id="K8W4mu1u56R08WQ6Gbn_-11" value="BROWSER" style="rounded=1;whiteSpace=wrap;html=1;movable=0;resizable=0;rotatable=0;deletable=0;editable=0;locked=1;connectable=0;labelBackgroundColor=none;fillColor=#FAE5C7;strokeColor=#0F8B8D;fontColor=#143642;" parent="1" vertex="1">
          <mxGeometry x="55" y="-40" width="120" height="60" as="geometry" />
        </mxCell>
        <mxCell id="K8W4mu1u56R08WQ6Gbn_-19" value="" style="endArrow=block;dashed=1;endFill=0;endSize=12;html=1;rounded=0;movable=0;resizable=0;rotatable=0;deletable=0;editable=0;locked=1;connectable=0;labelBackgroundColor=none;strokeColor=#A8201A;fontColor=default;" parent="1" edge="1">
          <mxGeometry width="160" relative="1" as="geometry">
            <mxPoint x="-40" y="200" as="sourcePoint" />
            <mxPoint x="95" y="199.99999999999997" as="targetPoint" />
          </mxGeometry>
        </mxCell>
        <mxCell id="K8W4mu1u56R08WQ6Gbn_-21" value="Signup with Credentials" style="text;html=1;align=center;verticalAlign=middle;resizable=0;points=[];autosize=1;strokeColor=none;fillColor=none;movable=0;rotatable=0;deletable=0;editable=0;locked=1;connectable=0;labelBackgroundColor=none;fontColor=#143642;" parent="1" vertex="1">
          <mxGeometry x="-50" y="170" width="150" height="30" as="geometry" />
        </mxCell>
        <mxCell id="K8W4mu1u56R08WQ6Gbn_-28" value="User" style="shape=umlActor;verticalLabelPosition=bottom;verticalAlign=top;html=1;outlineConnect=0;movable=0;resizable=0;rotatable=0;deletable=0;editable=0;locked=1;connectable=0;labelBackgroundColor=none;fillColor=#FAE5C7;strokeColor=#0F8B8D;fontColor=#143642;" parent="1" vertex="1">
          <mxGeometry x="-117.5" y="1187" width="80" height="120" as="geometry" />
        </mxCell>
        <mxCell id="K8W4mu1u56R08WQ6Gbn_-29" value="" style="endArrow=block;dashed=1;endFill=0;endSize=12;html=1;rounded=0;movable=0;resizable=0;rotatable=0;deletable=0;editable=0;locked=1;connectable=0;labelBackgroundColor=none;strokeColor=#A8201A;fontColor=default;" parent="1" edge="1">
          <mxGeometry width="160" relative="1" as="geometry">
            <mxPoint x="-37.5" y="1227" as="sourcePoint" />
            <mxPoint x="97.5" y="1227" as="targetPoint" />
          </mxGeometry>
        </mxCell>
        <mxCell id="K8W4mu1u56R08WQ6Gbn_-30" value="Search Request" style="text;html=1;align=center;verticalAlign=middle;resizable=0;points=[];autosize=1;strokeColor=none;fillColor=none;movable=0;rotatable=0;deletable=0;editable=0;locked=1;connectable=0;labelBackgroundColor=none;fontColor=#143642;" parent="1" vertex="1">
          <mxGeometry x="-27.5" y="1197" width="110" height="30" as="geometry" />
        </mxCell>
        <mxCell id="uS1PuOF0qPZL0ZpEJY2p-3" value="" style="html=1;points=[[0,0,0,0,5],[0,1,0,0,-5],[1,0,0,0,5],[1,1,0,0,-5]];perimeter=orthogonalPerimeter;outlineConnect=0;targetShapes=umlLifeline;portConstraint=eastwest;newEdgeStyle={&quot;curved&quot;:0,&quot;rounded&quot;:0};movable=0;resizable=0;rotatable=0;deletable=0;editable=0;locked=1;connectable=0;labelBackgroundColor=none;fillColor=#FAE5C7;strokeColor=#0F8B8D;fontColor=#143642;" parent="1" vertex="1">
          <mxGeometry x="110" y="220" width="10" height="40" as="geometry" />
        </mxCell>
        <mxCell id="uS1PuOF0qPZL0ZpEJY2p-4" value="Validating credentials" style="html=1;align=left;spacingLeft=2;endArrow=block;rounded=0;edgeStyle=orthogonalEdgeStyle;curved=0;rounded=0;movable=0;resizable=0;rotatable=0;deletable=0;editable=0;locked=1;connectable=0;labelBackgroundColor=none;strokeColor=#A8201A;fontColor=default;" parent="1" target="uS1PuOF0qPZL0ZpEJY2p-3" edge="1">
          <mxGeometry relative="1" as="geometry">
            <mxPoint x="115" y="200" as="sourcePoint" />
            <Array as="points">
              <mxPoint x="145" y="230" />
            </Array>
          </mxGeometry>
        </mxCell>
        <mxCell id="uS1PuOF0qPZL0ZpEJY2p-5" value="" style="endArrow=classic;html=1;rounded=0;movable=0;resizable=0;rotatable=0;deletable=0;editable=0;locked=1;connectable=0;labelBackgroundColor=none;strokeColor=#A8201A;fontColor=default;" parent="1" edge="1">
          <mxGeometry width="50" height="50" relative="1" as="geometry">
            <mxPoint x="110" y="289.0000000000001" as="sourcePoint" />
            <mxPoint x="255" y="289.0000000000001" as="targetPoint" />
          </mxGeometry>
        </mxCell>
        <mxCell id="uS1PuOF0qPZL0ZpEJY2p-6" value="Sign up details" style="text;html=1;align=center;verticalAlign=middle;resizable=0;points=[];autosize=1;strokeColor=none;fillColor=none;movable=0;rotatable=0;deletable=0;editable=0;locked=1;connectable=0;labelBackgroundColor=none;fontColor=#143642;" parent="1" vertex="1">
          <mxGeometry x="125" y="260" width="100" height="30" as="geometry" />
        </mxCell>
        <mxCell id="uS1PuOF0qPZL0ZpEJY2p-8" value="" style="line;strokeWidth=2;fillColor=none;align=left;verticalAlign=middle;spacingTop=-1;spacingLeft=3;spacingRight=3;rotatable=0;labelPosition=right;points=[];portConstraint=eastwest;strokeColor=#0F8B8D;dashed=1;dashPattern=12 12;movable=0;resizable=0;deletable=0;editable=0;locked=1;connectable=0;labelBackgroundColor=none;fontColor=#143642;" parent="1" vertex="1">
          <mxGeometry x="-150" y="580" width="860" height="8" as="geometry" />
        </mxCell>
        <mxCell id="uS1PuOF0qPZL0ZpEJY2p-9" value="" style="line;strokeWidth=2;fillColor=none;align=left;verticalAlign=middle;spacingTop=-1;spacingLeft=3;spacingRight=3;rotatable=0;labelPosition=right;points=[];portConstraint=eastwest;strokeColor=#0F8B8D;dashed=1;dashPattern=12 12;movable=0;resizable=0;deletable=0;editable=0;locked=1;connectable=0;labelBackgroundColor=none;fontColor=#143642;" parent="1" vertex="1">
          <mxGeometry x="-150" y="584" width="860" height="8" as="geometry" />
        </mxCell>
        <mxCell id="uS1PuOF0qPZL0ZpEJY2p-12" value="" style="endArrow=classic;html=1;rounded=0;movable=0;resizable=0;rotatable=0;deletable=0;editable=0;locked=1;connectable=0;labelBackgroundColor=none;strokeColor=#A8201A;fontColor=default;" parent="1" edge="1">
          <mxGeometry width="50" height="50" relative="1" as="geometry">
            <mxPoint x="270" y="776.0000000000001" as="sourcePoint" />
            <mxPoint x="415" y="776.0000000000001" as="targetPoint" />
          </mxGeometry>
        </mxCell>
        <mxCell id="uS1PuOF0qPZL0ZpEJY2p-13" value="Get user Information" style="text;html=1;align=center;verticalAlign=middle;resizable=0;points=[];autosize=1;strokeColor=none;fillColor=none;movable=0;rotatable=0;deletable=0;editable=0;locked=1;connectable=0;labelBackgroundColor=none;fontColor=#143642;" parent="1" vertex="1">
          <mxGeometry x="270" y="746" width="130" height="30" as="geometry" />
        </mxCell>
        <mxCell id="uS1PuOF0qPZL0ZpEJY2p-14" value="User information" style="html=1;verticalAlign=bottom;endArrow=open;dashed=1;endSize=8;curved=0;rounded=0;movable=0;resizable=0;rotatable=0;deletable=0;editable=0;locked=1;connectable=0;labelBackgroundColor=none;strokeColor=#A8201A;fontColor=default;" parent="1" edge="1">
          <mxGeometry x="0.0075" relative="1" as="geometry">
            <mxPoint x="410" y="819.29" as="sourcePoint" />
            <mxPoint x="270" y="819.29" as="targetPoint" />
            <mxPoint as="offset" />
          </mxGeometry>
        </mxCell>
        <mxCell id="uS1PuOF0qPZL0ZpEJY2p-15" value="User" style="shape=umlActor;verticalLabelPosition=bottom;verticalAlign=top;html=1;outlineConnect=0;movable=0;resizable=0;rotatable=0;deletable=0;editable=0;locked=1;connectable=0;labelBackgroundColor=none;fillColor=#FAE5C7;strokeColor=#0F8B8D;fontColor=#143642;" parent="1" vertex="1">
          <mxGeometry x="-120" y="620" width="80" height="120" as="geometry" />
        </mxCell>
        <mxCell id="uS1PuOF0qPZL0ZpEJY2p-16" value="Alt" style="shape=umlFrame;whiteSpace=wrap;html=1;pointerEvents=0;movable=0;resizable=0;rotatable=0;deletable=0;editable=0;locked=1;connectable=0;labelBackgroundColor=none;fillColor=#FAE5C7;strokeColor=#0F8B8D;fontColor=#143642;" parent="1" vertex="1">
          <mxGeometry x="80" y="920" width="210" height="180" as="geometry" />
        </mxCell>
        <mxCell id="uS1PuOF0qPZL0ZpEJY2p-17" value="[If validated Sucessfully]" style="text;html=1;align=center;verticalAlign=middle;resizable=0;points=[];autosize=1;strokeColor=none;fillColor=none;movable=0;rotatable=0;deletable=0;editable=0;locked=1;connectable=0;labelBackgroundColor=none;fontColor=#143642;" parent="1" vertex="1">
          <mxGeometry x="134" y="918" width="150" height="30" as="geometry" />
        </mxCell>
        <mxCell id="uS1PuOF0qPZL0ZpEJY2p-18" value="Start session" style="html=1;verticalAlign=bottom;endArrow=open;dashed=1;endSize=8;curved=0;rounded=0;movable=0;resizable=0;rotatable=0;deletable=0;editable=0;locked=1;connectable=0;labelBackgroundColor=none;strokeColor=#A8201A;fontColor=default;" parent="1" edge="1">
          <mxGeometry relative="1" as="geometry">
            <mxPoint x="260" y="980" as="sourcePoint" />
            <mxPoint x="110" y="980" as="targetPoint" />
          </mxGeometry>
        </mxCell>
        <mxCell id="uS1PuOF0qPZL0ZpEJY2p-19" value="Retry Login" style="html=1;verticalAlign=bottom;endArrow=open;dashed=1;endSize=8;curved=0;rounded=0;movable=0;resizable=0;rotatable=0;deletable=0;editable=0;locked=1;connectable=0;labelBackgroundColor=none;strokeColor=#A8201A;fontColor=default;" parent="1" edge="1">
          <mxGeometry x="0.0075" relative="1" as="geometry">
            <mxPoint x="250" y="1060" as="sourcePoint" />
            <mxPoint x="110" y="1060" as="targetPoint" />
            <mxPoint as="offset" />
          </mxGeometry>
        </mxCell>
        <mxCell id="uS1PuOF0qPZL0ZpEJY2p-20" value="[Else]" style="text;html=1;align=center;verticalAlign=middle;resizable=0;points=[];autosize=1;strokeColor=none;fillColor=none;movable=0;rotatable=0;deletable=0;editable=0;locked=1;connectable=0;labelBackgroundColor=none;fontColor=#143642;" parent="1" vertex="1">
          <mxGeometry x="110" y="998" width="50" height="30" as="geometry" />
        </mxCell>
        <mxCell id="uS1PuOF0qPZL0ZpEJY2p-21" value="" style="endArrow=block;dashed=1;endFill=0;endSize=12;html=1;rounded=0;movable=0;resizable=0;rotatable=0;deletable=0;editable=0;locked=1;connectable=0;labelBackgroundColor=none;strokeColor=#A8201A;fontColor=default;" parent="1" edge="1">
          <mxGeometry width="160" relative="1" as="geometry">
            <mxPoint x="-40" y="660" as="sourcePoint" />
            <mxPoint x="95" y="660" as="targetPoint" />
          </mxGeometry>
        </mxCell>
        <mxCell id="uS1PuOF0qPZL0ZpEJY2p-22" value="Login with Credentials" style="text;html=1;align=center;verticalAlign=middle;resizable=0;points=[];autosize=1;strokeColor=none;fillColor=none;movable=0;rotatable=0;deletable=0;editable=0;locked=1;connectable=0;labelBackgroundColor=none;fontColor=#143642;" parent="1" vertex="1">
          <mxGeometry x="-45" y="630" width="140" height="30" as="geometry" />
        </mxCell>
        <mxCell id="uS1PuOF0qPZL0ZpEJY2p-23" value="" style="html=1;points=[[0,0,0,0,5],[0,1,0,0,-5],[1,0,0,0,5],[1,1,0,0,-5]];perimeter=orthogonalPerimeter;outlineConnect=0;targetShapes=umlLifeline;portConstraint=eastwest;newEdgeStyle={&quot;curved&quot;:0,&quot;rounded&quot;:0};movable=0;resizable=0;rotatable=0;deletable=0;editable=0;locked=1;connectable=0;labelBackgroundColor=none;fillColor=#FAE5C7;strokeColor=#0F8B8D;fontColor=#143642;" parent="1" vertex="1">
          <mxGeometry x="110" y="680" width="10" height="40" as="geometry" />
        </mxCell>
        <mxCell id="uS1PuOF0qPZL0ZpEJY2p-24" value="Validating credentials" style="html=1;align=left;spacingLeft=2;endArrow=block;rounded=0;edgeStyle=orthogonalEdgeStyle;curved=0;rounded=0;movable=0;resizable=0;rotatable=0;deletable=0;editable=0;locked=1;connectable=0;labelBackgroundColor=none;strokeColor=#A8201A;fontColor=default;" parent="1" target="uS1PuOF0qPZL0ZpEJY2p-23" edge="1">
          <mxGeometry relative="1" as="geometry">
            <mxPoint x="115" y="660" as="sourcePoint" />
            <Array as="points">
              <mxPoint x="145" y="690" />
            </Array>
          </mxGeometry>
        </mxCell>
        <mxCell id="uS1PuOF0qPZL0ZpEJY2p-25" value="" style="endArrow=classic;html=1;rounded=0;movable=0;resizable=0;rotatable=0;deletable=0;editable=0;locked=1;connectable=0;labelBackgroundColor=none;strokeColor=#A8201A;fontColor=default;" parent="1" edge="1">
          <mxGeometry width="50" height="50" relative="1" as="geometry">
            <mxPoint x="110" y="749.0000000000001" as="sourcePoint" />
            <mxPoint x="255" y="749.0000000000001" as="targetPoint" />
          </mxGeometry>
        </mxCell>
        <mxCell id="uS1PuOF0qPZL0ZpEJY2p-26" value="Login details" style="text;html=1;align=center;verticalAlign=middle;resizable=0;points=[];autosize=1;strokeColor=none;fillColor=none;movable=0;rotatable=0;deletable=0;editable=0;locked=1;connectable=0;labelBackgroundColor=none;fontColor=#143642;" parent="1" vertex="1">
          <mxGeometry x="130" y="720" width="90" height="30" as="geometry" />
        </mxCell>
        <mxCell id="uS1PuOF0qPZL0ZpEJY2p-27" value="" style="html=1;points=[[0,0,0,0,5],[0,1,0,0,-5],[1,0,0,0,5],[1,1,0,0,-5]];perimeter=orthogonalPerimeter;outlineConnect=0;targetShapes=umlLifeline;portConstraint=eastwest;newEdgeStyle={&quot;curved&quot;:0,&quot;rounded&quot;:0};movable=0;resizable=0;rotatable=0;deletable=0;editable=0;locked=1;connectable=0;labelBackgroundColor=none;fillColor=#FAE5C7;strokeColor=#0F8B8D;fontColor=#143642;" parent="1" vertex="1">
          <mxGeometry x="265" y="860" width="10" height="40" as="geometry" />
        </mxCell>
        <mxCell id="uS1PuOF0qPZL0ZpEJY2p-28" value="Validating credentials" style="html=1;align=left;spacingLeft=2;endArrow=block;rounded=0;edgeStyle=orthogonalEdgeStyle;curved=0;rounded=0;movable=0;resizable=0;rotatable=0;deletable=0;editable=0;locked=1;connectable=0;labelBackgroundColor=none;strokeColor=#A8201A;fontColor=default;" parent="1" target="uS1PuOF0qPZL0ZpEJY2p-27" edge="1">
          <mxGeometry relative="1" as="geometry">
            <mxPoint x="270" y="840" as="sourcePoint" />
            <Array as="points">
              <mxPoint x="300" y="870" />
            </Array>
          </mxGeometry>
        </mxCell>
        <mxCell id="uS1PuOF0qPZL0ZpEJY2p-31" value="" style="line;strokeWidth=2;fillColor=none;align=left;verticalAlign=middle;spacingTop=-1;spacingLeft=3;spacingRight=3;rotatable=0;labelPosition=right;points=[];portConstraint=eastwest;strokeColor=#0F8B8D;dashed=1;dashPattern=12 12;movable=0;resizable=0;deletable=0;editable=0;locked=1;connectable=0;labelBackgroundColor=none;fontColor=#143642;" parent="1" vertex="1">
          <mxGeometry x="-132" y="1138" width="860" height="8" as="geometry" />
        </mxCell>
        <mxCell id="uS1PuOF0qPZL0ZpEJY2p-32" value="" style="line;strokeWidth=2;fillColor=none;align=left;verticalAlign=middle;spacingTop=-1;spacingLeft=3;spacingRight=3;rotatable=0;labelPosition=right;points=[];portConstraint=eastwest;strokeColor=#0F8B8D;dashed=1;dashPattern=12 12;movable=0;resizable=0;deletable=0;editable=0;locked=1;connectable=0;labelBackgroundColor=none;fontColor=#143642;" parent="1" vertex="1">
          <mxGeometry x="-132" y="1142" width="860" height="8" as="geometry" />
        </mxCell>
        <mxCell id="cpMbarF4RQVlycDG_CaR-1" value="" style="endArrow=classic;html=1;rounded=0;movable=0;resizable=0;rotatable=0;deletable=0;editable=0;locked=1;connectable=0;labelBackgroundColor=none;strokeColor=#A8201A;fontColor=default;" parent="1" target="aD2l0ft9Nl4M7q4JBBO3-8" edge="1">
          <mxGeometry width="50" height="50" relative="1" as="geometry">
            <mxPoint x="110" y="1257" as="sourcePoint" />
            <mxPoint x="260" y="1257" as="targetPoint" />
          </mxGeometry>
        </mxCell>
        <mxCell id="cpMbarF4RQVlycDG_CaR-2" value="Search Stock" style="text;html=1;align=center;verticalAlign=middle;resizable=0;points=[];autosize=1;strokeColor=none;fillColor=none;movable=0;rotatable=0;deletable=0;editable=0;locked=1;connectable=0;labelBackgroundColor=none;fontColor=#143642;" parent="1" vertex="1">
          <mxGeometry x="125" y="1232" width="90" height="30" as="geometry" />
        </mxCell>
        <mxCell id="cpMbarF4RQVlycDG_CaR-9" value="Alt" style="shape=umlFrame;whiteSpace=wrap;html=1;pointerEvents=0;movable=0;resizable=0;rotatable=0;deletable=0;editable=0;locked=1;connectable=0;labelBackgroundColor=none;fillColor=#FAE5C7;strokeColor=#0F8B8D;fontColor=#143642;" parent="1" vertex="1">
          <mxGeometry x="80" y="1302" width="530" height="208" as="geometry" />
        </mxCell>
        <mxCell id="cpMbarF4RQVlycDG_CaR-10" value="[If details found]" style="text;html=1;align=center;verticalAlign=middle;resizable=0;points=[];autosize=1;strokeColor=none;fillColor=none;movable=0;rotatable=0;deletable=0;editable=0;locked=1;connectable=0;labelBackgroundColor=none;fontColor=#143642;" parent="1" vertex="1">
          <mxGeometry x="142.5" y="1302" width="110" height="30" as="geometry" />
        </mxCell>
        <mxCell id="cpMbarF4RQVlycDG_CaR-11" value="Stock details" style="html=1;verticalAlign=bottom;endArrow=open;dashed=1;endSize=8;curved=0;rounded=0;movable=0;resizable=0;rotatable=0;deletable=0;editable=0;locked=1;connectable=0;labelBackgroundColor=none;strokeColor=#A8201A;fontColor=default;" parent="1" source="jaakjuPK3LjtoRiex82M-3" edge="1">
          <mxGeometry x="-0.2459" y="-2" relative="1" as="geometry">
            <mxPoint x="420" y="1362" as="sourcePoint" />
            <mxPoint x="270" y="1362" as="targetPoint" />
            <mxPoint as="offset" />
          </mxGeometry>
        </mxCell>
        <mxCell id="cpMbarF4RQVlycDG_CaR-12" value="Not Found" style="html=1;verticalAlign=bottom;endArrow=open;dashed=1;endSize=8;curved=0;rounded=0;movable=0;resizable=0;rotatable=0;deletable=0;editable=0;locked=1;connectable=0;labelBackgroundColor=none;strokeColor=#A8201A;fontColor=default;" parent="1" edge="1">
          <mxGeometry x="-0.3115" relative="1" as="geometry">
            <mxPoint x="575" y="1424" as="sourcePoint" />
            <mxPoint x="270" y="1424" as="targetPoint" />
            <mxPoint as="offset" />
          </mxGeometry>
        </mxCell>
        <mxCell id="cpMbarF4RQVlycDG_CaR-13" value="[Else]" style="text;html=1;align=center;verticalAlign=middle;resizable=0;points=[];autosize=1;strokeColor=none;fillColor=none;movable=0;rotatable=0;deletable=0;editable=0;locked=1;connectable=0;labelBackgroundColor=none;fontColor=#143642;" parent="1" vertex="1">
          <mxGeometry x="270" y="1380" width="50" height="30" as="geometry" />
        </mxCell>
        <mxCell id="cpMbarF4RQVlycDG_CaR-16" value="" style="line;strokeWidth=2;fillColor=none;align=left;verticalAlign=middle;spacingTop=-1;spacingLeft=3;spacingRight=3;rotatable=0;labelPosition=right;points=[];portConstraint=eastwest;strokeColor=#0F8B8D;dashed=1;dashPattern=12 12;movable=0;resizable=0;deletable=0;editable=0;locked=1;connectable=0;labelBackgroundColor=none;fontColor=#143642;" parent="1" vertex="1">
          <mxGeometry x="-140" y="1548" width="860" height="8" as="geometry" />
        </mxCell>
        <mxCell id="cpMbarF4RQVlycDG_CaR-17" value="" style="line;strokeWidth=2;fillColor=none;align=left;verticalAlign=middle;spacingTop=-1;spacingLeft=3;spacingRight=3;rotatable=0;labelPosition=right;points=[];portConstraint=eastwest;strokeColor=#0F8B8D;dashed=1;dashPattern=12 12;movable=0;resizable=0;deletable=0;editable=0;locked=1;connectable=0;labelBackgroundColor=none;fontColor=#143642;" parent="1" vertex="1">
          <mxGeometry x="-140" y="1552" width="860" height="8" as="geometry" />
        </mxCell>
        <mxCell id="cpMbarF4RQVlycDG_CaR-50" value="" style="endArrow=classic;html=1;rounded=0;movable=0;resizable=0;rotatable=0;deletable=0;editable=0;locked=1;connectable=0;labelBackgroundColor=none;strokeColor=#A8201A;fontColor=default;" parent="1" edge="1">
          <mxGeometry width="50" height="50" relative="1" as="geometry">
            <mxPoint x="270.75" y="1727" as="sourcePoint" />
            <mxPoint x="409.75" y="1727" as="targetPoint" />
          </mxGeometry>
        </mxCell>
        <mxCell id="cpMbarF4RQVlycDG_CaR-51" value="Request user Balance" style="text;html=1;align=center;verticalAlign=middle;resizable=0;points=[];autosize=1;strokeColor=none;fillColor=none;movable=0;rotatable=0;deletable=0;editable=0;locked=1;connectable=0;labelBackgroundColor=none;fontColor=#143642;" parent="1" vertex="1">
          <mxGeometry x="270.75" y="1687" width="140" height="30" as="geometry" />
        </mxCell>
        <mxCell id="cpMbarF4RQVlycDG_CaR-52" value="User" style="shape=umlActor;verticalLabelPosition=bottom;verticalAlign=top;html=1;outlineConnect=0;movable=0;resizable=0;rotatable=0;deletable=0;editable=0;locked=1;connectable=0;labelBackgroundColor=none;fillColor=#FAE5C7;strokeColor=#0F8B8D;fontColor=#143642;" parent="1" vertex="1">
          <mxGeometry x="-118" y="1597" width="80" height="120" as="geometry" />
        </mxCell>
        <mxCell id="cpMbarF4RQVlycDG_CaR-53" value="" style="endArrow=block;dashed=1;endFill=0;endSize=12;html=1;rounded=0;movable=0;resizable=0;rotatable=0;deletable=0;editable=0;locked=1;connectable=0;labelBackgroundColor=none;strokeColor=#A8201A;fontColor=default;" parent="1" edge="1">
          <mxGeometry width="160" relative="1" as="geometry">
            <mxPoint x="-38" y="1637" as="sourcePoint" />
            <mxPoint x="97" y="1637" as="targetPoint" />
          </mxGeometry>
        </mxCell>
        <mxCell id="cpMbarF4RQVlycDG_CaR-54" value="Buy Request" style="text;html=1;align=center;verticalAlign=middle;resizable=0;points=[];autosize=1;strokeColor=none;fillColor=none;movable=0;rotatable=0;deletable=0;editable=0;locked=1;connectable=0;labelBackgroundColor=none;fontColor=#143642;" parent="1" vertex="1">
          <mxGeometry x="-18" y="1607" width="90" height="30" as="geometry" />
        </mxCell>
        <mxCell id="cpMbarF4RQVlycDG_CaR-55" value="" style="endArrow=classic;html=1;rounded=0;movable=0;resizable=0;rotatable=0;deletable=0;editable=0;locked=1;connectable=0;labelBackgroundColor=none;strokeColor=#A8201A;fontColor=default;" parent="1" edge="1">
          <mxGeometry width="50" height="50" relative="1" as="geometry">
            <mxPoint x="110.75" y="1673" as="sourcePoint" />
            <mxPoint x="255.75" y="1673" as="targetPoint" />
          </mxGeometry>
        </mxCell>
        <mxCell id="cpMbarF4RQVlycDG_CaR-56" value="Buy request" style="text;html=1;align=center;verticalAlign=middle;resizable=0;points=[];autosize=1;strokeColor=none;fillColor=none;movable=0;rotatable=0;deletable=0;editable=0;locked=1;connectable=0;labelBackgroundColor=none;fontColor=#143642;" parent="1" vertex="1">
          <mxGeometry x="124.5" y="1642" width="90" height="30" as="geometry" />
        </mxCell>
        <mxCell id="cpMbarF4RQVlycDG_CaR-57" value="Alt" style="shape=umlFrame;whiteSpace=wrap;html=1;pointerEvents=0;movable=0;resizable=0;rotatable=0;deletable=0;editable=0;locked=1;connectable=0;labelBackgroundColor=none;fillColor=#FAE5C7;strokeColor=#0F8B8D;fontColor=#143642;" parent="1" vertex="1">
          <mxGeometry x="30.75" y="1795" width="589.25" height="510" as="geometry" />
        </mxCell>
        <mxCell id="cpMbarF4RQVlycDG_CaR-58" value="[If Balance is 0]" style="text;html=1;align=center;verticalAlign=middle;resizable=0;points=[];autosize=1;strokeColor=none;fillColor=none;movable=0;rotatable=0;deletable=0;editable=0;locked=1;connectable=0;labelBackgroundColor=none;fontColor=#143642;" parent="1" vertex="1">
          <mxGeometry x="123.25" y="1794" width="110" height="30" as="geometry" />
        </mxCell>
        <mxCell id="cpMbarF4RQVlycDG_CaR-59" value="Insufficient Balance" style="html=1;verticalAlign=bottom;endArrow=open;dashed=1;endSize=8;curved=0;rounded=0;movable=0;resizable=0;rotatable=0;deletable=0;editable=0;locked=1;connectable=0;entryX=1;entryY=0.658;entryDx=0;entryDy=0;entryPerimeter=0;labelBackgroundColor=none;strokeColor=#A8201A;fontColor=default;" parent="1" edge="1">
          <mxGeometry y="-1" relative="1" as="geometry">
            <mxPoint x="253.25" y="1854" as="sourcePoint" />
            <mxPoint x="113.25" y="1854.3600000000006" as="targetPoint" />
            <mxPoint as="offset" />
          </mxGeometry>
        </mxCell>
        <mxCell id="cpMbarF4RQVlycDG_CaR-61" value="[Else]" style="text;html=1;align=center;verticalAlign=middle;resizable=0;points=[];autosize=1;strokeColor=none;fillColor=none;movable=0;rotatable=0;deletable=0;editable=0;locked=1;connectable=0;labelBackgroundColor=none;fontColor=#143642;" parent="1" vertex="1">
          <mxGeometry x="123.25" y="1874" width="50" height="30" as="geometry" />
        </mxCell>
        <mxCell id="cpMbarF4RQVlycDG_CaR-68" value="User Balance" style="html=1;verticalAlign=bottom;endArrow=open;dashed=1;endSize=8;curved=0;rounded=0;movable=0;resizable=0;rotatable=0;deletable=0;editable=0;locked=1;connectable=0;labelBackgroundColor=none;strokeColor=#A8201A;fontColor=default;" parent="1" edge="1">
          <mxGeometry x="-0.2459" y="-2" relative="1" as="geometry">
            <mxPoint x="410.75" y="1767" as="sourcePoint" />
            <mxPoint x="268.25" y="1767" as="targetPoint" />
            <mxPoint as="offset" />
          </mxGeometry>
        </mxCell>
        <mxCell id="cpMbarF4RQVlycDG_CaR-88" value="Fetch stock price" style="text;html=1;align=center;verticalAlign=middle;resizable=0;points=[];autosize=1;strokeColor=none;fillColor=none;movable=0;rotatable=0;deletable=0;editable=0;locked=1;connectable=0;labelBackgroundColor=none;fontColor=#143642;" parent="1" vertex="1">
          <mxGeometry x="285.75" y="1900" width="110" height="30" as="geometry" />
        </mxCell>
        <mxCell id="cpMbarF4RQVlycDG_CaR-89" value="" style="endArrow=classic;html=1;rounded=0;movable=0;resizable=0;rotatable=0;deletable=0;editable=0;locked=1;connectable=0;labelBackgroundColor=none;strokeColor=#A8201A;fontColor=default;" parent="1" edge="1">
          <mxGeometry width="50" height="50" relative="1" as="geometry">
            <mxPoint x="270.75" y="1930" as="sourcePoint" />
            <mxPoint x="575.75" y="1930" as="targetPoint" />
          </mxGeometry>
        </mxCell>
        <mxCell id="cpMbarF4RQVlycDG_CaR-90" value="Stock details" style="html=1;verticalAlign=bottom;endArrow=open;dashed=1;endSize=8;curved=0;rounded=0;movable=0;resizable=0;rotatable=0;deletable=0;editable=0;locked=1;connectable=0;entryX=1;entryY=0.658;entryDx=0;entryDy=0;entryPerimeter=0;labelBackgroundColor=none;strokeColor=#A8201A;fontColor=default;" parent="1" edge="1">
          <mxGeometry x="-0.4426" relative="1" as="geometry">
            <mxPoint x="575.75" y="1974.3600000000006" as="sourcePoint" />
            <mxPoint x="270.75" y="1974.3600000000006" as="targetPoint" />
            <mxPoint as="offset" />
          </mxGeometry>
        </mxCell>
        <mxCell id="cpMbarF4RQVlycDG_CaR-94" value="Alt" style="shape=umlFrame;whiteSpace=wrap;html=1;pointerEvents=0;movable=0;resizable=0;rotatable=0;deletable=0;editable=0;locked=1;connectable=0;labelBackgroundColor=none;fillColor=#FAE5C7;strokeColor=#0F8B8D;fontColor=#143642;" parent="1" vertex="1">
          <mxGeometry x="70.75" y="2016" width="370" height="270" as="geometry" />
        </mxCell>
        <mxCell id="cpMbarF4RQVlycDG_CaR-95" value="[Balance &amp;lt; Stock price]" style="text;html=1;align=center;verticalAlign=middle;resizable=0;points=[];autosize=1;strokeColor=none;fillColor=none;movable=0;rotatable=0;deletable=0;editable=0;locked=1;connectable=0;labelBackgroundColor=none;fontColor=#143642;" parent="1" vertex="1">
          <mxGeometry x="117.25" y="2016" width="150" height="30" as="geometry" />
        </mxCell>
        <mxCell id="cpMbarF4RQVlycDG_CaR-96" value="Insufficient Balance" style="html=1;verticalAlign=bottom;endArrow=open;dashed=1;endSize=8;curved=0;rounded=0;movable=0;resizable=0;rotatable=0;deletable=0;editable=0;locked=1;connectable=0;labelBackgroundColor=none;strokeColor=#A8201A;fontColor=default;" parent="1" edge="1">
          <mxGeometry x="-0.0667" relative="1" as="geometry">
            <mxPoint x="250.75" y="2076" as="sourcePoint" />
            <mxPoint x="110.75" y="2076" as="targetPoint" />
            <mxPoint as="offset" />
          </mxGeometry>
        </mxCell>
        <mxCell id="cpMbarF4RQVlycDG_CaR-98" value="[Else]" style="text;html=1;align=center;verticalAlign=middle;resizable=0;points=[];autosize=1;strokeColor=none;fillColor=none;movable=0;rotatable=0;deletable=0;editable=0;locked=1;connectable=0;labelBackgroundColor=none;fontColor=#143642;" parent="1" vertex="1">
          <mxGeometry x="120.25" y="2091" width="50" height="30" as="geometry" />
        </mxCell>
        <mxCell id="cpMbarF4RQVlycDG_CaR-99" value="" style="endArrow=classic;html=1;rounded=0;movable=0;resizable=0;rotatable=0;deletable=0;editable=0;locked=1;connectable=0;labelBackgroundColor=none;strokeColor=#A8201A;fontColor=default;" parent="1" edge="1">
          <mxGeometry width="50" height="50" relative="1" as="geometry">
            <mxPoint x="270.75" y="2136" as="sourcePoint" />
            <mxPoint x="410.75" y="2136" as="targetPoint" />
          </mxGeometry>
        </mxCell>
        <mxCell id="cpMbarF4RQVlycDG_CaR-100" value="Deduct Balance" style="text;html=1;align=center;verticalAlign=middle;resizable=0;points=[];autosize=1;strokeColor=none;fillColor=none;movable=0;rotatable=0;deletable=0;editable=0;locked=1;connectable=0;labelBackgroundColor=none;fontColor=#143642;" parent="1" vertex="1">
          <mxGeometry x="283.75" y="2113" width="110" height="30" as="geometry" />
        </mxCell>
        <mxCell id="cpMbarF4RQVlycDG_CaR-103" value="" style="endArrow=classic;html=1;rounded=0;movable=0;resizable=0;rotatable=0;deletable=0;editable=0;locked=1;connectable=0;labelBackgroundColor=none;strokeColor=#A8201A;fontColor=default;" parent="1" edge="1">
          <mxGeometry width="50" height="50" relative="1" as="geometry">
            <mxPoint x="270.75" y="2170" as="sourcePoint" />
            <mxPoint x="410.75" y="2170" as="targetPoint" />
          </mxGeometry>
        </mxCell>
        <mxCell id="cpMbarF4RQVlycDG_CaR-104" value="Add transaction" style="text;html=1;align=center;verticalAlign=middle;resizable=0;points=[];autosize=1;strokeColor=none;fillColor=none;movable=0;rotatable=0;deletable=0;editable=0;locked=1;connectable=0;labelBackgroundColor=none;fontColor=#143642;" parent="1" vertex="1">
          <mxGeometry x="283.75" y="2147" width="110" height="30" as="geometry" />
        </mxCell>
        <mxCell id="cpMbarF4RQVlycDG_CaR-105" value="" style="endArrow=classic;html=1;rounded=0;movable=0;resizable=0;rotatable=0;deletable=0;editable=0;locked=1;connectable=0;labelBackgroundColor=none;strokeColor=#A8201A;fontColor=default;" parent="1" edge="1">
          <mxGeometry width="50" height="50" relative="1" as="geometry">
            <mxPoint x="270.75" y="2205" as="sourcePoint" />
            <mxPoint x="410.75" y="2205" as="targetPoint" />
          </mxGeometry>
        </mxCell>
        <mxCell id="cpMbarF4RQVlycDG_CaR-106" value="Update Portfolio" style="text;html=1;align=center;verticalAlign=middle;resizable=0;points=[];autosize=1;strokeColor=none;fillColor=none;movable=0;rotatable=0;deletable=0;editable=0;locked=1;connectable=0;labelBackgroundColor=none;fontColor=#143642;" parent="1" vertex="1">
          <mxGeometry x="283.75" y="2182" width="110" height="30" as="geometry" />
        </mxCell>
        <mxCell id="cpMbarF4RQVlycDG_CaR-107" value="Stock purchased sucessfully" style="html=1;verticalAlign=bottom;endArrow=open;dashed=1;endSize=8;curved=0;rounded=0;movable=0;resizable=0;rotatable=0;deletable=0;editable=0;locked=1;connectable=0;labelBackgroundColor=none;strokeColor=#A8201A;fontColor=default;" parent="1" edge="1">
          <mxGeometry x="-0.0667" relative="1" as="geometry">
            <mxPoint x="255.75" y="2266" as="sourcePoint" />
            <mxPoint x="110.75" y="2266" as="targetPoint" />
            <mxPoint as="offset" />
          </mxGeometry>
        </mxCell>
        <mxCell id="cpMbarF4RQVlycDG_CaR-108" value="Stock details" style="html=1;verticalAlign=bottom;endArrow=open;dashed=1;endSize=8;curved=0;rounded=0;movable=0;resizable=0;rotatable=0;deletable=0;editable=0;locked=1;connectable=0;labelBackgroundColor=none;strokeColor=#A8201A;fontColor=default;" parent="1" edge="1">
          <mxGeometry x="-0.2459" y="-2" relative="1" as="geometry">
            <mxPoint x="250" y="1380" as="sourcePoint" />
            <mxPoint x="110" y="1380" as="targetPoint" />
            <mxPoint as="offset" />
          </mxGeometry>
        </mxCell>
        <mxCell id="cpMbarF4RQVlycDG_CaR-109" value="Details not found" style="html=1;verticalAlign=bottom;endArrow=open;dashed=1;endSize=8;curved=0;rounded=0;movable=0;resizable=0;rotatable=0;deletable=0;editable=0;locked=1;connectable=0;labelBackgroundColor=none;strokeColor=#A8201A;fontColor=default;" parent="1" edge="1">
          <mxGeometry x="-0.1803" y="-2" relative="1" as="geometry">
            <mxPoint x="250" y="1460" as="sourcePoint" />
            <mxPoint x="110" y="1460" as="targetPoint" />
            <mxPoint as="offset" />
          </mxGeometry>
        </mxCell>
        <mxCell id="cpMbarF4RQVlycDG_CaR-110" value="" style="line;strokeWidth=2;fillColor=none;align=left;verticalAlign=middle;spacingTop=-1;spacingLeft=3;spacingRight=3;rotatable=0;labelPosition=right;points=[];portConstraint=eastwest;strokeColor=#0F8B8D;dashed=1;dashPattern=12 12;movable=0;resizable=0;deletable=0;editable=0;locked=1;connectable=0;labelBackgroundColor=none;fontColor=#143642;" parent="1" vertex="1">
          <mxGeometry x="-117.5" y="2390" width="860" height="8" as="geometry" />
        </mxCell>
        <mxCell id="cpMbarF4RQVlycDG_CaR-111" value="" style="line;strokeWidth=2;fillColor=none;align=left;verticalAlign=middle;spacingTop=-1;spacingLeft=3;spacingRight=3;rotatable=0;labelPosition=right;points=[];portConstraint=eastwest;strokeColor=#0F8B8D;dashed=1;dashPattern=12 12;movable=0;resizable=0;deletable=0;editable=0;locked=1;connectable=0;labelBackgroundColor=none;fontColor=#143642;" parent="1" vertex="1">
          <mxGeometry x="-117.5" y="2394" width="860" height="8" as="geometry" />
        </mxCell>
        <mxCell id="cpMbarF4RQVlycDG_CaR-114" value="User" style="shape=umlActor;verticalLabelPosition=bottom;verticalAlign=top;html=1;outlineConnect=0;movable=0;resizable=0;rotatable=0;deletable=0;editable=0;locked=1;connectable=0;labelBackgroundColor=none;fillColor=#FAE5C7;strokeColor=#0F8B8D;fontColor=#143642;" parent="1" vertex="1">
          <mxGeometry x="-120.5" y="2452" width="80" height="120" as="geometry" />
        </mxCell>
        <mxCell id="cpMbarF4RQVlycDG_CaR-115" value="" style="endArrow=block;dashed=1;endFill=0;endSize=12;html=1;rounded=0;movable=0;resizable=0;rotatable=0;deletable=0;editable=0;locked=1;connectable=0;labelBackgroundColor=none;strokeColor=#A8201A;fontColor=default;" parent="1" edge="1">
          <mxGeometry width="160" relative="1" as="geometry">
            <mxPoint x="-40.5" y="2492" as="sourcePoint" />
            <mxPoint x="94.5" y="2492" as="targetPoint" />
          </mxGeometry>
        </mxCell>
        <mxCell id="cpMbarF4RQVlycDG_CaR-116" value="Sell Request" style="text;html=1;align=center;verticalAlign=middle;resizable=0;points=[];autosize=1;strokeColor=none;fillColor=none;movable=0;rotatable=0;deletable=0;editable=0;locked=1;connectable=0;labelBackgroundColor=none;fontColor=#143642;" parent="1" vertex="1">
          <mxGeometry x="-20.5" y="2462" width="90" height="30" as="geometry" />
        </mxCell>
        <mxCell id="cpMbarF4RQVlycDG_CaR-117" value="" style="endArrow=classic;html=1;rounded=0;movable=0;resizable=0;rotatable=0;deletable=0;editable=0;locked=1;connectable=0;labelBackgroundColor=none;strokeColor=#A8201A;fontColor=default;" parent="1" edge="1">
          <mxGeometry width="50" height="50" relative="1" as="geometry">
            <mxPoint x="108.25" y="2528" as="sourcePoint" />
            <mxPoint x="253.25" y="2528" as="targetPoint" />
          </mxGeometry>
        </mxCell>
        <mxCell id="cpMbarF4RQVlycDG_CaR-118" value="Sell request" style="text;html=1;align=center;verticalAlign=middle;resizable=0;points=[];autosize=1;strokeColor=none;fillColor=none;movable=0;rotatable=0;deletable=0;editable=0;locked=1;connectable=0;labelBackgroundColor=none;fontColor=#143642;" parent="1" vertex="1">
          <mxGeometry x="122" y="2497" width="90" height="30" as="geometry" />
        </mxCell>
        <mxCell id="cpMbarF4RQVlycDG_CaR-124" value="Fetch stock price" style="text;html=1;align=center;verticalAlign=middle;resizable=0;points=[];autosize=1;strokeColor=none;fillColor=none;movable=0;rotatable=0;deletable=0;editable=0;locked=1;connectable=0;labelBackgroundColor=none;fontColor=#143642;" parent="1" vertex="1">
          <mxGeometry x="288" y="2518.69" width="110" height="30" as="geometry" />
        </mxCell>
        <mxCell id="cpMbarF4RQVlycDG_CaR-125" value="" style="endArrow=classic;html=1;rounded=0;movable=0;resizable=0;rotatable=0;deletable=0;editable=0;locked=1;connectable=0;labelBackgroundColor=none;strokeColor=#A8201A;fontColor=default;" parent="1" edge="1">
          <mxGeometry width="50" height="50" relative="1" as="geometry">
            <mxPoint x="273" y="2548.69" as="sourcePoint" />
            <mxPoint x="578" y="2548.69" as="targetPoint" />
          </mxGeometry>
        </mxCell>
        <mxCell id="cpMbarF4RQVlycDG_CaR-126" value="Stock details" style="html=1;verticalAlign=bottom;endArrow=open;dashed=1;endSize=8;curved=0;rounded=0;movable=0;resizable=0;rotatable=0;deletable=0;editable=0;locked=1;connectable=0;entryX=1;entryY=0.658;entryDx=0;entryDy=0;entryPerimeter=0;labelBackgroundColor=none;strokeColor=#A8201A;fontColor=default;" parent="1" edge="1">
          <mxGeometry x="-0.4426" relative="1" as="geometry">
            <mxPoint x="578" y="2585.0500000000006" as="sourcePoint" />
            <mxPoint x="273" y="2585.0500000000006" as="targetPoint" />
            <mxPoint as="offset" />
          </mxGeometry>
        </mxCell>
        <mxCell id="cpMbarF4RQVlycDG_CaR-131" value="" style="endArrow=classic;html=1;rounded=0;movable=0;resizable=0;rotatable=0;deletable=0;editable=0;locked=1;connectable=0;labelBackgroundColor=none;strokeColor=#A8201A;fontColor=default;" parent="1" edge="1">
          <mxGeometry width="50" height="50" relative="1" as="geometry">
            <mxPoint x="270" y="2638" as="sourcePoint" />
            <mxPoint x="410" y="2638" as="targetPoint" />
          </mxGeometry>
        </mxCell>
        <mxCell id="cpMbarF4RQVlycDG_CaR-132" value="Add Balance" style="text;html=1;align=center;verticalAlign=middle;resizable=0;points=[];autosize=1;strokeColor=none;fillColor=none;movable=0;rotatable=0;deletable=0;editable=0;locked=1;connectable=0;labelBackgroundColor=none;fontColor=#143642;" parent="1" vertex="1">
          <mxGeometry x="293" y="2611" width="90" height="30" as="geometry" />
        </mxCell>
        <mxCell id="cpMbarF4RQVlycDG_CaR-133" value="" style="endArrow=classic;html=1;rounded=0;movable=0;resizable=0;rotatable=0;deletable=0;editable=0;locked=1;connectable=0;labelBackgroundColor=none;strokeColor=#A8201A;fontColor=default;" parent="1" edge="1">
          <mxGeometry width="50" height="50" relative="1" as="geometry">
            <mxPoint x="270" y="2672" as="sourcePoint" />
            <mxPoint x="410" y="2672" as="targetPoint" />
          </mxGeometry>
        </mxCell>
        <mxCell id="cpMbarF4RQVlycDG_CaR-134" value="Add transaction" style="text;html=1;align=center;verticalAlign=middle;resizable=0;points=[];autosize=1;strokeColor=none;fillColor=none;movable=0;rotatable=0;deletable=0;editable=0;locked=1;connectable=0;labelBackgroundColor=none;fontColor=#143642;" parent="1" vertex="1">
          <mxGeometry x="283" y="2649" width="110" height="30" as="geometry" />
        </mxCell>
        <mxCell id="cpMbarF4RQVlycDG_CaR-135" value="" style="endArrow=classic;html=1;rounded=0;movable=0;resizable=0;rotatable=0;deletable=0;editable=0;locked=1;connectable=0;labelBackgroundColor=none;strokeColor=#A8201A;fontColor=default;" parent="1" edge="1">
          <mxGeometry width="50" height="50" relative="1" as="geometry">
            <mxPoint x="270" y="2707" as="sourcePoint" />
            <mxPoint x="410" y="2707" as="targetPoint" />
          </mxGeometry>
        </mxCell>
        <mxCell id="cpMbarF4RQVlycDG_CaR-136" value="Update Portfolio" style="text;html=1;align=center;verticalAlign=middle;resizable=0;points=[];autosize=1;strokeColor=none;fillColor=none;movable=0;rotatable=0;deletable=0;editable=0;locked=1;connectable=0;labelBackgroundColor=none;fontColor=#143642;" parent="1" vertex="1">
          <mxGeometry x="283" y="2684" width="110" height="30" as="geometry" />
        </mxCell>
        <mxCell id="cpMbarF4RQVlycDG_CaR-137" value="Stock sold sucessfully" style="html=1;verticalAlign=bottom;endArrow=open;dashed=1;endSize=8;curved=0;rounded=0;movable=0;resizable=0;rotatable=0;deletable=0;editable=0;locked=1;connectable=0;labelBackgroundColor=none;strokeColor=#A8201A;fontColor=default;" parent="1" edge="1">
          <mxGeometry x="-0.0667" relative="1" as="geometry">
            <mxPoint x="255" y="2744" as="sourcePoint" />
            <mxPoint x="110" y="2744" as="targetPoint" />
            <mxPoint as="offset" />
          </mxGeometry>
        </mxCell>
        <mxCell id="cpMbarF4RQVlycDG_CaR-142" value="" style="line;strokeWidth=2;fillColor=none;align=left;verticalAlign=middle;spacingTop=-1;spacingLeft=3;spacingRight=3;rotatable=0;labelPosition=right;points=[];portConstraint=eastwest;strokeColor=#0F8B8D;dashed=1;dashPattern=12 12;movable=0;resizable=0;deletable=0;editable=0;locked=1;connectable=0;labelBackgroundColor=none;fontColor=#143642;" parent="1" vertex="1">
          <mxGeometry x="-117.5" y="2790" width="860" height="8" as="geometry" />
        </mxCell>
        <mxCell id="cpMbarF4RQVlycDG_CaR-144" value="" style="line;strokeWidth=2;fillColor=none;align=left;verticalAlign=middle;spacingTop=-1;spacingLeft=3;spacingRight=3;rotatable=0;labelPosition=right;points=[];portConstraint=eastwest;strokeColor=#0F8B8D;dashed=1;dashPattern=12 12;movable=0;resizable=0;deletable=0;editable=0;locked=1;connectable=0;labelBackgroundColor=none;fontColor=#143642;" parent="1" vertex="1">
          <mxGeometry x="-117.5" y="2794" width="860" height="8" as="geometry" />
        </mxCell>
        <mxCell id="cpMbarF4RQVlycDG_CaR-145" value="User" style="shape=umlActor;verticalLabelPosition=bottom;verticalAlign=top;html=1;outlineConnect=0;movable=0;resizable=0;rotatable=0;deletable=0;editable=0;locked=1;connectable=0;labelBackgroundColor=none;fillColor=#FAE5C7;strokeColor=#0F8B8D;fontColor=#143642;" parent="1" vertex="1">
          <mxGeometry x="-123.5" y="2840" width="80" height="120" as="geometry" />
        </mxCell>
        <mxCell id="cpMbarF4RQVlycDG_CaR-146" value="" style="endArrow=block;dashed=1;endFill=0;endSize=12;html=1;rounded=0;movable=0;resizable=0;rotatable=0;deletable=0;editable=0;locked=1;connectable=0;labelBackgroundColor=none;strokeColor=#A8201A;fontColor=default;" parent="1" edge="1">
          <mxGeometry width="160" relative="1" as="geometry">
            <mxPoint x="-43.5" y="2880" as="sourcePoint" />
            <mxPoint x="91.5" y="2880" as="targetPoint" />
          </mxGeometry>
        </mxCell>
        <mxCell id="cpMbarF4RQVlycDG_CaR-147" value="View portfolio" style="text;html=1;align=center;verticalAlign=middle;resizable=0;points=[];autosize=1;strokeColor=none;fillColor=none;movable=0;rotatable=0;deletable=0;editable=0;locked=1;connectable=0;labelBackgroundColor=none;fontColor=#143642;" parent="1" vertex="1">
          <mxGeometry x="-28.5" y="2850" width="100" height="30" as="geometry" />
        </mxCell>
        <mxCell id="cpMbarF4RQVlycDG_CaR-148" value="" style="endArrow=classic;html=1;rounded=0;movable=0;resizable=0;rotatable=0;deletable=0;editable=0;locked=1;connectable=0;labelBackgroundColor=none;strokeColor=#A8201A;fontColor=default;" parent="1" edge="1">
          <mxGeometry width="50" height="50" relative="1" as="geometry">
            <mxPoint x="109.25" y="2916" as="sourcePoint" />
            <mxPoint x="254.25" y="2916" as="targetPoint" />
          </mxGeometry>
        </mxCell>
        <mxCell id="cpMbarF4RQVlycDG_CaR-149" value="View portfolio" style="text;html=1;align=center;verticalAlign=middle;resizable=0;points=[];autosize=1;strokeColor=none;fillColor=none;movable=0;rotatable=0;deletable=0;editable=0;locked=1;connectable=0;labelBackgroundColor=none;fontColor=#143642;" parent="1" vertex="1">
          <mxGeometry x="127" y="2889" width="100" height="30" as="geometry" />
        </mxCell>
        <mxCell id="cpMbarF4RQVlycDG_CaR-150" value="Fetch portfolio details" style="text;html=1;align=center;verticalAlign=middle;resizable=0;points=[];autosize=1;strokeColor=none;fillColor=none;movable=0;rotatable=0;deletable=0;editable=0;locked=1;connectable=0;labelBackgroundColor=none;fontColor=#143642;" parent="1" vertex="1">
          <mxGeometry x="270" y="2906.69" width="140" height="30" as="geometry" />
        </mxCell>
        <mxCell id="cpMbarF4RQVlycDG_CaR-151" value="" style="endArrow=classic;html=1;rounded=0;movable=0;resizable=0;rotatable=0;deletable=0;editable=0;locked=1;connectable=0;labelBackgroundColor=none;strokeColor=#A8201A;fontColor=default;" parent="1" edge="1">
          <mxGeometry width="50" height="50" relative="1" as="geometry">
            <mxPoint x="270" y="2936.69" as="sourcePoint" />
            <mxPoint x="410" y="2937" as="targetPoint" />
          </mxGeometry>
        </mxCell>
        <mxCell id="cpMbarF4RQVlycDG_CaR-152" value="Portfolio details" style="html=1;verticalAlign=bottom;endArrow=open;dashed=1;endSize=8;curved=0;rounded=0;movable=0;resizable=0;rotatable=0;deletable=0;editable=0;locked=1;connectable=0;entryX=1;entryY=0.658;entryDx=0;entryDy=0;entryPerimeter=0;labelBackgroundColor=none;strokeColor=#A8201A;fontColor=default;" parent="1" edge="1">
          <mxGeometry relative="1" as="geometry">
            <mxPoint x="410" y="2973" as="sourcePoint" />
            <mxPoint x="270" y="2973.0500000000006" as="targetPoint" />
            <mxPoint as="offset" />
          </mxGeometry>
        </mxCell>
        <mxCell id="cpMbarF4RQVlycDG_CaR-159" value="Portfolio details" style="html=1;verticalAlign=bottom;endArrow=open;dashed=1;endSize=8;curved=0;rounded=0;movable=0;resizable=0;rotatable=0;deletable=0;editable=0;locked=1;connectable=0;labelBackgroundColor=none;strokeColor=#A8201A;fontColor=default;" parent="1" edge="1">
          <mxGeometry x="-0.0667" relative="1" as="geometry">
            <mxPoint x="255" y="3000" as="sourcePoint" />
            <mxPoint x="110" y="3000" as="targetPoint" />
            <mxPoint as="offset" />
          </mxGeometry>
        </mxCell>
        <mxCell id="cpMbarF4RQVlycDG_CaR-160" value="" style="line;strokeWidth=2;fillColor=none;align=left;verticalAlign=middle;spacingTop=-1;spacingLeft=3;spacingRight=3;rotatable=0;labelPosition=right;points=[];portConstraint=eastwest;strokeColor=#0F8B8D;dashed=1;dashPattern=12 12;movable=0;resizable=0;deletable=0;editable=0;locked=1;connectable=0;labelBackgroundColor=none;fontColor=#143642;" parent="1" vertex="1">
          <mxGeometry x="-120.5" y="3040" width="860" height="8" as="geometry" />
        </mxCell>
        <mxCell id="cpMbarF4RQVlycDG_CaR-161" value="" style="line;strokeWidth=2;fillColor=none;align=left;verticalAlign=middle;spacingTop=-1;spacingLeft=3;spacingRight=3;rotatable=0;labelPosition=right;points=[];portConstraint=eastwest;strokeColor=#0F8B8D;dashed=1;dashPattern=12 12;movable=0;resizable=0;deletable=0;editable=0;locked=1;connectable=0;labelBackgroundColor=none;fontColor=#143642;" parent="1" vertex="1">
          <mxGeometry x="-120.5" y="3044" width="860" height="8" as="geometry" />
        </mxCell>
        <mxCell id="cpMbarF4RQVlycDG_CaR-171" value="User" style="shape=umlActor;verticalLabelPosition=bottom;verticalAlign=top;html=1;outlineConnect=0;movable=0;resizable=0;rotatable=0;deletable=0;editable=0;locked=1;connectable=0;labelBackgroundColor=none;fillColor=#FAE5C7;strokeColor=#0F8B8D;fontColor=#143642;" parent="1" vertex="1">
          <mxGeometry x="-120" y="3064" width="80" height="120" as="geometry" />
        </mxCell>
        <mxCell id="cpMbarF4RQVlycDG_CaR-172" value="" style="endArrow=block;dashed=1;endFill=0;endSize=12;html=1;rounded=0;movable=0;resizable=0;rotatable=0;deletable=0;editable=0;locked=1;connectable=0;labelBackgroundColor=none;strokeColor=#A8201A;fontColor=default;" parent="1" edge="1">
          <mxGeometry width="160" relative="1" as="geometry">
            <mxPoint x="-40" y="3104" as="sourcePoint" />
            <mxPoint x="95" y="3104" as="targetPoint" />
          </mxGeometry>
        </mxCell>
        <mxCell id="cpMbarF4RQVlycDG_CaR-173" value="View transactions" style="text;html=1;align=center;verticalAlign=middle;resizable=0;points=[];autosize=1;strokeColor=none;fillColor=none;movable=0;rotatable=0;deletable=0;editable=0;locked=1;connectable=0;labelBackgroundColor=none;fontColor=#143642;" parent="1" vertex="1">
          <mxGeometry x="-35" y="3074" width="120" height="30" as="geometry" />
        </mxCell>
        <mxCell id="cpMbarF4RQVlycDG_CaR-174" value="" style="endArrow=classic;html=1;rounded=0;movable=0;resizable=0;rotatable=0;deletable=0;editable=0;locked=1;connectable=0;labelBackgroundColor=none;strokeColor=#A8201A;fontColor=default;" parent="1" edge="1">
          <mxGeometry width="50" height="50" relative="1" as="geometry">
            <mxPoint x="110.75" y="3140" as="sourcePoint" />
            <mxPoint x="255.75" y="3140" as="targetPoint" />
          </mxGeometry>
        </mxCell>
        <mxCell id="cpMbarF4RQVlycDG_CaR-175" value="View transactions" style="text;html=1;align=center;verticalAlign=middle;resizable=0;points=[];autosize=1;strokeColor=none;fillColor=none;movable=0;rotatable=0;deletable=0;editable=0;locked=1;connectable=0;labelBackgroundColor=none;fontColor=#143642;" parent="1" vertex="1">
          <mxGeometry x="118.5" y="3113" width="120" height="30" as="geometry" />
        </mxCell>
        <mxCell id="cpMbarF4RQVlycDG_CaR-176" value="Fetch transactions" style="text;html=1;align=center;verticalAlign=middle;resizable=0;points=[];autosize=1;strokeColor=none;fillColor=none;movable=0;rotatable=0;deletable=0;editable=0;locked=1;connectable=0;labelBackgroundColor=none;fontColor=#143642;" parent="1" vertex="1">
          <mxGeometry x="283.5" y="3130.69" width="120" height="30" as="geometry" />
        </mxCell>
        <mxCell id="cpMbarF4RQVlycDG_CaR-177" value="" style="endArrow=classic;html=1;rounded=0;movable=0;resizable=0;rotatable=0;deletable=0;editable=0;locked=1;connectable=0;labelBackgroundColor=none;strokeColor=#A8201A;fontColor=default;" parent="1" edge="1">
          <mxGeometry width="50" height="50" relative="1" as="geometry">
            <mxPoint x="270.5" y="3160.69" as="sourcePoint" />
            <mxPoint x="410.5" y="3161" as="targetPoint" />
          </mxGeometry>
        </mxCell>
        <mxCell id="cpMbarF4RQVlycDG_CaR-178" value="Transaction details" style="html=1;verticalAlign=bottom;endArrow=open;dashed=1;endSize=8;curved=0;rounded=0;movable=0;resizable=0;rotatable=0;deletable=0;editable=0;locked=1;connectable=0;entryX=1;entryY=0.658;entryDx=0;entryDy=0;entryPerimeter=0;labelBackgroundColor=none;strokeColor=#A8201A;fontColor=default;" parent="1" edge="1">
          <mxGeometry relative="1" as="geometry">
            <mxPoint x="409.5" y="3197" as="sourcePoint" />
            <mxPoint x="269.5" y="3197.0500000000006" as="targetPoint" />
            <mxPoint as="offset" />
          </mxGeometry>
        </mxCell>
        <mxCell id="cpMbarF4RQVlycDG_CaR-179" value="Transaction details" style="html=1;verticalAlign=bottom;endArrow=open;dashed=1;endSize=8;curved=0;rounded=0;movable=0;resizable=0;rotatable=0;deletable=0;editable=0;locked=1;connectable=0;labelBackgroundColor=none;strokeColor=#A8201A;fontColor=default;" parent="1" edge="1">
          <mxGeometry x="-0.0667" relative="1" as="geometry">
            <mxPoint x="254.5" y="3224" as="sourcePoint" />
            <mxPoint x="109.5" y="3224" as="targetPoint" />
            <mxPoint as="offset" />
          </mxGeometry>
        </mxCell>
        <mxCell id="cpMbarF4RQVlycDG_CaR-180" value="" style="line;strokeWidth=2;fillColor=none;align=left;verticalAlign=middle;spacingTop=-1;spacingLeft=3;spacingRight=3;rotatable=0;labelPosition=right;points=[];portConstraint=eastwest;strokeColor=#0F8B8D;dashed=1;dashPattern=12 12;movable=0;resizable=0;deletable=0;editable=0;locked=1;connectable=0;labelBackgroundColor=none;fontColor=#143642;" parent="1" vertex="1">
          <mxGeometry x="-123.5" y="3254" width="860" height="8" as="geometry" />
        </mxCell>
        <mxCell id="cpMbarF4RQVlycDG_CaR-181" value="" style="line;strokeWidth=2;fillColor=none;align=left;verticalAlign=middle;spacingTop=-1;spacingLeft=3;spacingRight=3;rotatable=0;labelPosition=right;points=[];portConstraint=eastwest;strokeColor=#0F8B8D;dashed=1;dashPattern=12 12;movable=0;resizable=0;deletable=0;editable=0;locked=1;connectable=0;labelBackgroundColor=none;fontColor=#143642;" parent="1" vertex="1">
          <mxGeometry x="-123.5" y="3258" width="860" height="8" as="geometry" />
        </mxCell>
        <mxCell id="cpMbarF4RQVlycDG_CaR-182" value="User" style="shape=umlActor;verticalLabelPosition=bottom;verticalAlign=top;html=1;outlineConnect=0;movable=0;resizable=0;rotatable=0;deletable=0;editable=0;locked=1;connectable=0;labelBackgroundColor=none;fillColor=#FAE5C7;strokeColor=#0F8B8D;fontColor=#143642;" parent="1" vertex="1">
          <mxGeometry x="-118" y="3280" width="80" height="120" as="geometry" />
        </mxCell>
        <mxCell id="cpMbarF4RQVlycDG_CaR-183" value="" style="endArrow=block;dashed=1;endFill=0;endSize=12;html=1;rounded=0;movable=0;resizable=0;rotatable=0;deletable=0;editable=0;locked=1;connectable=0;labelBackgroundColor=none;strokeColor=#A8201A;fontColor=default;" parent="1" edge="1">
          <mxGeometry width="160" relative="1" as="geometry">
            <mxPoint x="-38" y="3320" as="sourcePoint" />
            <mxPoint x="97" y="3320" as="targetPoint" />
          </mxGeometry>
        </mxCell>
        <mxCell id="cpMbarF4RQVlycDG_CaR-184" value="Watch videos&amp;nbsp;" style="text;html=1;align=center;verticalAlign=middle;resizable=0;points=[];autosize=1;strokeColor=none;fillColor=none;movable=0;rotatable=0;deletable=0;editable=0;locked=1;connectable=0;labelBackgroundColor=none;fontColor=#143642;" parent="1" vertex="1">
          <mxGeometry x="-23" y="3290" width="100" height="30" as="geometry" />
        </mxCell>
        <mxCell id="cpMbarF4RQVlycDG_CaR-189" value="Videos" style="html=1;verticalAlign=bottom;endArrow=open;dashed=1;endSize=8;curved=0;rounded=0;movable=0;resizable=0;rotatable=0;deletable=0;editable=0;locked=1;connectable=0;entryX=1;entryY=0.658;entryDx=0;entryDy=0;entryPerimeter=0;labelBackgroundColor=none;strokeColor=#A8201A;fontColor=default;" parent="1" edge="1">
          <mxGeometry relative="1" as="geometry">
            <mxPoint x="252.5" y="3400" as="sourcePoint" />
            <mxPoint x="112.5" y="3400.0500000000006" as="targetPoint" />
            <mxPoint as="offset" />
          </mxGeometry>
        </mxCell>
        <mxCell id="cpMbarF4RQVlycDG_CaR-191" value="" style="line;strokeWidth=2;fillColor=none;align=left;verticalAlign=middle;spacingTop=-1;spacingLeft=3;spacingRight=3;rotatable=0;labelPosition=right;points=[];portConstraint=eastwest;strokeColor=#0F8B8D;dashed=1;dashPattern=12 12;movable=0;resizable=0;deletable=0;editable=0;locked=1;connectable=0;labelBackgroundColor=none;fontColor=#143642;" parent="1" vertex="1">
          <mxGeometry x="-123.5" y="3450" width="860" height="8" as="geometry" />
        </mxCell>
        <mxCell id="cpMbarF4RQVlycDG_CaR-192" value="" style="line;strokeWidth=2;fillColor=none;align=left;verticalAlign=middle;spacingTop=-1;spacingLeft=3;spacingRight=3;rotatable=0;labelPosition=right;points=[];portConstraint=eastwest;strokeColor=#0F8B8D;dashed=1;dashPattern=12 12;movable=0;resizable=0;deletable=0;editable=0;locked=1;connectable=0;labelBackgroundColor=none;fontColor=#143642;" parent="1" vertex="1">
          <mxGeometry x="-123.5" y="3454" width="860" height="8" as="geometry" />
        </mxCell>
        <mxCell id="cpMbarF4RQVlycDG_CaR-193" value="User" style="shape=umlActor;verticalLabelPosition=bottom;verticalAlign=top;html=1;outlineConnect=0;movable=0;resizable=0;rotatable=0;deletable=0;editable=0;locked=1;connectable=0;labelBackgroundColor=none;fillColor=#FAE5C7;strokeColor=#0F8B8D;fontColor=#143642;" parent="1" vertex="1">
          <mxGeometry x="-118" y="3476" width="80" height="120" as="geometry" />
        </mxCell>
        <mxCell id="cpMbarF4RQVlycDG_CaR-194" value="" style="endArrow=block;dashed=1;endFill=0;endSize=12;html=1;rounded=0;movable=0;resizable=0;rotatable=0;deletable=0;editable=0;locked=1;connectable=0;labelBackgroundColor=none;strokeColor=#A8201A;fontColor=default;" parent="1" edge="1">
          <mxGeometry width="160" relative="1" as="geometry">
            <mxPoint x="-38" y="3516" as="sourcePoint" />
            <mxPoint x="97" y="3516" as="targetPoint" />
          </mxGeometry>
        </mxCell>
        <mxCell id="cpMbarF4RQVlycDG_CaR-195" value="Read articles" style="text;html=1;align=center;verticalAlign=middle;resizable=0;points=[];autosize=1;strokeColor=none;fillColor=none;movable=0;rotatable=0;deletable=0;editable=0;locked=1;connectable=0;labelBackgroundColor=none;fontColor=#143642;" parent="1" vertex="1">
          <mxGeometry x="-18" y="3486" width="90" height="30" as="geometry" />
        </mxCell>
        <mxCell id="cpMbarF4RQVlycDG_CaR-197" value="" style="endArrow=classic;html=1;rounded=0;movable=0;resizable=0;rotatable=0;deletable=0;editable=0;locked=1;connectable=0;labelBackgroundColor=none;strokeColor=#A8201A;fontColor=default;" parent="1" edge="1">
          <mxGeometry width="50" height="50" relative="1" as="geometry">
            <mxPoint x="110" y="3352" as="sourcePoint" />
            <mxPoint x="255" y="3352" as="targetPoint" />
          </mxGeometry>
        </mxCell>
        <mxCell id="cpMbarF4RQVlycDG_CaR-198" value="Request videos" style="text;html=1;align=center;verticalAlign=middle;resizable=0;points=[];autosize=1;strokeColor=none;fillColor=none;movable=0;rotatable=0;deletable=0;editable=0;locked=1;connectable=0;labelBackgroundColor=none;fontColor=#143642;" parent="1" vertex="1">
          <mxGeometry x="122.75" y="3325" width="110" height="30" as="geometry" />
        </mxCell>
        <mxCell id="cpMbarF4RQVlycDG_CaR-199" value="articles" style="html=1;verticalAlign=bottom;endArrow=open;dashed=1;endSize=8;curved=0;rounded=0;movable=0;resizable=0;rotatable=0;deletable=0;editable=0;locked=1;connectable=0;entryX=1;entryY=0.658;entryDx=0;entryDy=0;entryPerimeter=0;labelBackgroundColor=none;strokeColor=#A8201A;fontColor=default;" parent="1" edge="1">
          <mxGeometry relative="1" as="geometry">
            <mxPoint x="252.5" y="3595.23" as="sourcePoint" />
            <mxPoint x="112.5" y="3595.2800000000007" as="targetPoint" />
            <mxPoint as="offset" />
          </mxGeometry>
        </mxCell>
        <mxCell id="cpMbarF4RQVlycDG_CaR-200" value="" style="endArrow=classic;html=1;rounded=0;movable=0;resizable=0;rotatable=0;deletable=0;editable=0;locked=1;connectable=0;labelBackgroundColor=none;strokeColor=#A8201A;fontColor=default;" parent="1" edge="1">
          <mxGeometry width="50" height="50" relative="1" as="geometry">
            <mxPoint x="110" y="3547.23" as="sourcePoint" />
            <mxPoint x="255" y="3547.23" as="targetPoint" />
          </mxGeometry>
        </mxCell>
        <mxCell id="cpMbarF4RQVlycDG_CaR-201" value="Request articles" style="text;html=1;align=center;verticalAlign=middle;resizable=0;points=[];autosize=1;strokeColor=none;fillColor=none;movable=0;rotatable=0;deletable=0;editable=0;locked=1;connectable=0;labelBackgroundColor=none;fontColor=#143642;" parent="1" vertex="1">
          <mxGeometry x="122.75" y="3520.23" width="110" height="30" as="geometry" />
        </mxCell>
        <mxCell id="cpMbarF4RQVlycDG_CaR-202" value="" style="line;strokeWidth=2;fillColor=none;align=left;verticalAlign=middle;spacingTop=-1;spacingLeft=3;spacingRight=3;rotatable=0;labelPosition=right;points=[];portConstraint=eastwest;strokeColor=#0F8B8D;dashed=1;dashPattern=12 12;movable=0;resizable=0;deletable=0;editable=0;locked=1;connectable=0;labelBackgroundColor=none;fontColor=#143642;" parent="1" vertex="1">
          <mxGeometry x="-123.5" y="3650" width="860" height="8" as="geometry" />
        </mxCell>
        <mxCell id="cpMbarF4RQVlycDG_CaR-203" value="" style="line;strokeWidth=2;fillColor=none;align=left;verticalAlign=middle;spacingTop=-1;spacingLeft=3;spacingRight=3;rotatable=0;labelPosition=right;points=[];portConstraint=eastwest;strokeColor=#0F8B8D;dashed=1;dashPattern=12 12;movable=0;resizable=0;deletable=0;editable=0;locked=1;connectable=0;labelBackgroundColor=none;fontColor=#143642;" parent="1" vertex="1">
          <mxGeometry x="-123.5" y="3654" width="860" height="8" as="geometry" />
        </mxCell>
        <mxCell id="cpMbarF4RQVlycDG_CaR-204" value="User" style="shape=umlActor;verticalLabelPosition=bottom;verticalAlign=top;html=1;outlineConnect=0;movable=0;resizable=0;rotatable=0;deletable=0;editable=0;locked=1;connectable=0;labelBackgroundColor=none;fillColor=#FAE5C7;strokeColor=#0F8B8D;fontColor=#143642;" parent="1" vertex="1">
          <mxGeometry x="-118" y="3676" width="80" height="120" as="geometry" />
        </mxCell>
        <mxCell id="cpMbarF4RQVlycDG_CaR-205" value="" style="endArrow=block;dashed=1;endFill=0;endSize=12;html=1;rounded=0;movable=0;resizable=0;rotatable=0;deletable=0;editable=0;locked=1;connectable=0;labelBackgroundColor=none;strokeColor=#A8201A;fontColor=default;" parent="1" edge="1">
          <mxGeometry width="160" relative="1" as="geometry">
            <mxPoint x="-38" y="3716" as="sourcePoint" />
            <mxPoint x="97" y="3716" as="targetPoint" />
          </mxGeometry>
        </mxCell>
        <mxCell id="cpMbarF4RQVlycDG_CaR-206" value="Attempt quiz" style="text;html=1;align=center;verticalAlign=middle;resizable=0;points=[];autosize=1;strokeColor=none;fillColor=none;movable=0;rotatable=0;deletable=0;editable=0;locked=1;connectable=0;labelBackgroundColor=none;fontColor=#143642;" parent="1" vertex="1">
          <mxGeometry x="-18" y="3686" width="90" height="30" as="geometry" />
        </mxCell>
        <mxCell id="cpMbarF4RQVlycDG_CaR-207" value="Quiz" style="html=1;verticalAlign=bottom;endArrow=open;dashed=1;endSize=8;curved=0;rounded=0;movable=0;resizable=0;rotatable=0;deletable=0;editable=0;locked=1;connectable=0;entryX=1;entryY=0.658;entryDx=0;entryDy=0;entryPerimeter=0;labelBackgroundColor=none;strokeColor=#A8201A;fontColor=default;" parent="1" edge="1">
          <mxGeometry relative="1" as="geometry">
            <mxPoint x="252.5" y="3795.23" as="sourcePoint" />
            <mxPoint x="112.5" y="3795.2800000000007" as="targetPoint" />
            <mxPoint as="offset" />
          </mxGeometry>
        </mxCell>
        <mxCell id="cpMbarF4RQVlycDG_CaR-208" value="" style="endArrow=classic;html=1;rounded=0;movable=0;resizable=0;rotatable=0;deletable=0;editable=0;locked=1;connectable=0;labelBackgroundColor=none;strokeColor=#A8201A;fontColor=default;" parent="1" edge="1">
          <mxGeometry width="50" height="50" relative="1" as="geometry">
            <mxPoint x="110" y="3747.23" as="sourcePoint" />
            <mxPoint x="255" y="3747.23" as="targetPoint" />
          </mxGeometry>
        </mxCell>
        <mxCell id="cpMbarF4RQVlycDG_CaR-209" value="Request quiz" style="text;html=1;align=center;verticalAlign=middle;resizable=0;points=[];autosize=1;strokeColor=none;fillColor=none;movable=0;rotatable=0;deletable=0;editable=0;locked=1;connectable=0;labelBackgroundColor=none;fontColor=#143642;" parent="1" vertex="1">
          <mxGeometry x="132.75" y="3720.23" width="90" height="30" as="geometry" />
        </mxCell>
        <mxCell id="cpMbarF4RQVlycDG_CaR-210" value="" style="line;strokeWidth=2;fillColor=none;align=left;verticalAlign=middle;spacingTop=-1;spacingLeft=3;spacingRight=3;rotatable=0;labelPosition=right;points=[];portConstraint=eastwest;strokeColor=#0F8B8D;dashed=1;dashPattern=12 12;movable=0;resizable=0;deletable=0;editable=0;locked=1;connectable=0;labelBackgroundColor=none;fontColor=#143642;" parent="1" vertex="1">
          <mxGeometry x="-167.5" y="130" width="860" height="8" as="geometry" />
        </mxCell>
        <mxCell id="cpMbarF4RQVlycDG_CaR-211" value="" style="line;strokeWidth=2;fillColor=none;align=left;verticalAlign=middle;spacingTop=-1;spacingLeft=3;spacingRight=3;rotatable=0;labelPosition=right;points=[];portConstraint=eastwest;strokeColor=#0F8B8D;dashed=1;dashPattern=12 12;movable=0;resizable=0;deletable=0;editable=0;locked=1;connectable=0;labelBackgroundColor=none;fontColor=#143642;" parent="1" vertex="1">
          <mxGeometry x="-167.5" y="134" width="860" height="8" as="geometry" />
        </mxCell>
        <mxCell id="cpMbarF4RQVlycDG_CaR-212" value="" style="line;strokeWidth=2;fillColor=none;align=left;verticalAlign=middle;spacingTop=-1;spacingLeft=3;spacingRight=3;rotatable=0;labelPosition=right;points=[];portConstraint=eastwest;strokeColor=#0F8B8D;dashed=1;dashPattern=12 12;movable=0;resizable=0;deletable=0;editable=0;locked=1;connectable=0;labelBackgroundColor=none;fontColor=#143642;" parent="1" vertex="1">
          <mxGeometry x="-117.5" y="3860" width="860" height="8" as="geometry" />
        </mxCell>
        <mxCell id="cpMbarF4RQVlycDG_CaR-213" value="" style="line;strokeWidth=2;fillColor=none;align=left;verticalAlign=middle;spacingTop=-1;spacingLeft=3;spacingRight=3;rotatable=0;labelPosition=right;points=[];portConstraint=eastwest;strokeColor=#0F8B8D;dashed=1;dashPattern=12 12;movable=0;resizable=0;deletable=0;editable=0;locked=1;connectable=0;labelBackgroundColor=none;fontColor=#143642;" parent="1" vertex="1">
          <mxGeometry x="-117.5" y="3864" width="860" height="8" as="geometry" />
        </mxCell>
        <mxCell id="cpMbarF4RQVlycDG_CaR-217" value="User" style="shape=umlActor;verticalLabelPosition=bottom;verticalAlign=top;html=1;outlineConnect=0;movable=0;resizable=0;rotatable=0;deletable=0;editable=0;locked=1;connectable=0;labelBackgroundColor=none;fillColor=#FAE5C7;strokeColor=#0F8B8D;fontColor=#143642;" parent="1" vertex="1">
          <mxGeometry x="-120.5" y="3908" width="80" height="120" as="geometry" />
        </mxCell>
        <mxCell id="cpMbarF4RQVlycDG_CaR-218" value="" style="endArrow=block;dashed=1;endFill=0;endSize=12;html=1;rounded=0;movable=0;resizable=0;rotatable=0;deletable=0;editable=0;locked=1;connectable=0;labelBackgroundColor=none;strokeColor=#A8201A;fontColor=default;" parent="1" edge="1">
          <mxGeometry width="160" relative="1" as="geometry">
            <mxPoint x="-40.5" y="3948" as="sourcePoint" />
            <mxPoint x="94.5" y="3948" as="targetPoint" />
          </mxGeometry>
        </mxCell>
        <mxCell id="cpMbarF4RQVlycDG_CaR-219" value="Delete Account" style="text;html=1;align=center;verticalAlign=middle;resizable=0;points=[];autosize=1;strokeColor=none;fillColor=none;movable=0;rotatable=0;deletable=0;editable=0;locked=1;connectable=0;labelBackgroundColor=none;fontColor=#143642;" parent="1" vertex="1">
          <mxGeometry x="-25.5" y="3918" width="100" height="30" as="geometry" />
        </mxCell>
        <mxCell id="cpMbarF4RQVlycDG_CaR-223" value="" style="html=1;points=[[0,0,0,0,5],[0,1,0,0,-5],[1,0,0,0,5],[1,1,0,0,-5]];perimeter=orthogonalPerimeter;outlineConnect=0;targetShapes=umlLifeline;portConstraint=eastwest;newEdgeStyle={&quot;curved&quot;:0,&quot;rounded&quot;:0};movable=0;resizable=0;rotatable=0;deletable=0;editable=0;locked=1;connectable=0;labelBackgroundColor=none;fillColor=#FAE5C7;strokeColor=#0F8B8D;fontColor=#143642;" parent="1" vertex="1">
          <mxGeometry x="265" y="4110" width="10" height="40" as="geometry" />
        </mxCell>
        <mxCell id="cpMbarF4RQVlycDG_CaR-224" value="matching details" style="html=1;align=left;spacingLeft=2;endArrow=block;rounded=0;edgeStyle=orthogonalEdgeStyle;curved=0;rounded=0;movable=0;resizable=0;rotatable=0;deletable=0;editable=0;locked=1;connectable=0;labelBackgroundColor=none;strokeColor=#A8201A;fontColor=default;" parent="1" target="cpMbarF4RQVlycDG_CaR-223" edge="1">
          <mxGeometry relative="1" as="geometry">
            <mxPoint x="270" y="4090" as="sourcePoint" />
            <Array as="points">
              <mxPoint x="300" y="4120" />
            </Array>
          </mxGeometry>
        </mxCell>
        <mxCell id="cpMbarF4RQVlycDG_CaR-225" value="" style="line;strokeWidth=2;fillColor=none;align=left;verticalAlign=middle;spacingTop=-1;spacingLeft=3;spacingRight=3;rotatable=0;labelPosition=right;points=[];portConstraint=eastwest;strokeColor=#0F8B8D;dashed=1;dashPattern=12 12;movable=0;resizable=0;deletable=0;editable=0;locked=1;connectable=0;labelBackgroundColor=none;fontColor=#143642;" parent="1" vertex="1">
          <mxGeometry x="-120.5" y="4370" width="860" height="8" as="geometry" />
        </mxCell>
        <mxCell id="cpMbarF4RQVlycDG_CaR-226" value="" style="line;strokeWidth=2;fillColor=none;align=left;verticalAlign=middle;spacingTop=-1;spacingLeft=3;spacingRight=3;rotatable=0;labelPosition=right;points=[];portConstraint=eastwest;strokeColor=#0F8B8D;dashed=1;dashPattern=12 12;movable=0;resizable=0;deletable=0;editable=0;locked=1;connectable=0;labelBackgroundColor=none;fontColor=#143642;" parent="1" vertex="1">
          <mxGeometry x="-120.5" y="4374" width="860" height="8" as="geometry" />
        </mxCell>
        <mxCell id="cpMbarF4RQVlycDG_CaR-227" value="" style="endArrow=classic;html=1;rounded=0;labelBackgroundColor=none;strokeColor=#A8201A;fontColor=default;movable=0;resizable=0;rotatable=0;deletable=0;editable=0;locked=1;connectable=0;" parent="1" edge="1">
          <mxGeometry width="50" height="50" relative="1" as="geometry">
            <mxPoint x="115.25" y="4502" as="sourcePoint" />
            <mxPoint x="252.75" y="4502" as="targetPoint" />
          </mxGeometry>
        </mxCell>
        <mxCell id="cpMbarF4RQVlycDG_CaR-228" value="Logout request" style="text;html=1;align=center;verticalAlign=middle;resizable=0;points=[];autosize=1;strokeColor=none;fillColor=none;labelBackgroundColor=none;fontColor=#143642;movable=0;rotatable=0;deletable=0;editable=0;locked=1;connectable=0;" parent="1" vertex="1">
          <mxGeometry x="122.75" y="4472" width="100" height="30" as="geometry" />
        </mxCell>
        <mxCell id="cpMbarF4RQVlycDG_CaR-236" value="Login page" style="html=1;verticalAlign=bottom;endArrow=open;dashed=1;endSize=8;curved=0;rounded=0;labelBackgroundColor=none;strokeColor=#A8201A;fontColor=default;movable=0;resizable=0;rotatable=0;deletable=0;editable=0;locked=1;connectable=0;" parent="1" edge="1">
          <mxGeometry relative="1" as="geometry">
            <mxPoint x="248.5" y="4610" as="sourcePoint" />
            <mxPoint x="108.5" y="4610" as="targetPoint" />
            <mxPoint as="offset" />
          </mxGeometry>
        </mxCell>
        <mxCell id="cpMbarF4RQVlycDG_CaR-237" value="User" style="shape=umlActor;verticalLabelPosition=bottom;verticalAlign=top;html=1;outlineConnect=0;movable=0;resizable=0;rotatable=0;deletable=0;editable=0;locked=1;connectable=0;labelBackgroundColor=none;fillColor=#FAE5C7;strokeColor=#0F8B8D;fontColor=#143642;" parent="1" vertex="1">
          <mxGeometry x="-118.5" y="4420" width="80" height="120" as="geometry" />
        </mxCell>
        <mxCell id="cpMbarF4RQVlycDG_CaR-238" value="" style="endArrow=block;dashed=1;endFill=0;endSize=12;html=1;rounded=0;movable=0;resizable=0;rotatable=0;deletable=0;editable=0;locked=1;connectable=0;labelBackgroundColor=none;strokeColor=#A8201A;fontColor=default;" parent="1" edge="1">
          <mxGeometry width="160" relative="1" as="geometry">
            <mxPoint x="-38.5" y="4460" as="sourcePoint" />
            <mxPoint x="96.5" y="4460" as="targetPoint" />
          </mxGeometry>
        </mxCell>
        <mxCell id="cpMbarF4RQVlycDG_CaR-239" value="Logout request" style="text;html=1;align=center;verticalAlign=middle;resizable=0;points=[];autosize=1;strokeColor=none;fillColor=none;movable=0;rotatable=0;deletable=0;editable=0;locked=1;connectable=0;labelBackgroundColor=none;fontColor=#143642;" parent="1" vertex="1">
          <mxGeometry x="-23.5" y="4430" width="100" height="30" as="geometry" />
        </mxCell>
        <mxCell id="cpMbarF4RQVlycDG_CaR-242" value="" style="html=1;points=[[0,0,0,0,5],[0,1,0,0,-5],[1,0,0,0,5],[1,1,0,0,-5]];perimeter=orthogonalPerimeter;outlineConnect=0;targetShapes=umlLifeline;portConstraint=eastwest;newEdgeStyle={&quot;curved&quot;:0,&quot;rounded&quot;:0};labelBackgroundColor=none;fillColor=#FAE5C7;strokeColor=#0F8B8D;fontColor=#143642;movable=0;resizable=0;rotatable=0;deletable=0;editable=0;locked=1;connectable=0;" parent="1" vertex="1">
          <mxGeometry x="265" y="4544" width="10" height="40" as="geometry" />
        </mxCell>
        <mxCell id="cpMbarF4RQVlycDG_CaR-243" value="Close session" style="html=1;align=left;spacingLeft=2;endArrow=block;rounded=0;edgeStyle=orthogonalEdgeStyle;curved=0;rounded=0;labelBackgroundColor=none;strokeColor=#A8201A;fontColor=default;movable=0;resizable=0;rotatable=0;deletable=0;editable=0;locked=1;connectable=0;" parent="1" target="cpMbarF4RQVlycDG_CaR-242" edge="1">
          <mxGeometry x="-0.0105" relative="1" as="geometry">
            <mxPoint x="270" y="4524" as="sourcePoint" />
            <Array as="points">
              <mxPoint x="300" y="4554" />
            </Array>
            <mxPoint as="offset" />
          </mxGeometry>
        </mxCell>
        <mxCell id="cpMbarF4RQVlycDG_CaR-244" value="" style="endArrow=none;dashed=1;html=1;dashPattern=1 3;strokeWidth=2;rounded=0;labelBackgroundColor=none;strokeColor=#A8201A;fontColor=default;movable=0;resizable=0;rotatable=0;deletable=0;editable=0;locked=1;connectable=0;" parent="1" target="aD2l0ft9Nl4M7q4JBBO3-13" edge="1">
          <mxGeometry width="50" height="50" relative="1" as="geometry">
            <mxPoint x="420" y="4770" as="sourcePoint" />
            <mxPoint x="350" y="4330" as="targetPoint" />
          </mxGeometry>
        </mxCell>
        <mxCell id="cpMbarF4RQVlycDG_CaR-245" value="" style="endArrow=none;dashed=1;html=1;dashPattern=1 3;strokeWidth=2;rounded=0;labelBackgroundColor=none;strokeColor=#A8201A;fontColor=default;movable=0;resizable=0;rotatable=0;deletable=0;editable=0;locked=1;connectable=0;" parent="1" edge="1">
          <mxGeometry width="50" height="50" relative="1" as="geometry">
            <mxPoint x="265" y="4770" as="sourcePoint" />
            <mxPoint x="264.5" y="4660" as="targetPoint" />
          </mxGeometry>
        </mxCell>
        <mxCell id="cpMbarF4RQVlycDG_CaR-246" value="" style="endArrow=none;dashed=1;html=1;dashPattern=1 3;strokeWidth=2;rounded=0;labelBackgroundColor=none;strokeColor=#A8201A;fontColor=default;movable=0;resizable=0;rotatable=0;deletable=0;editable=0;locked=1;connectable=0;" parent="1" edge="1">
          <mxGeometry width="50" height="50" relative="1" as="geometry">
            <mxPoint x="102" y="4770" as="sourcePoint" />
            <mxPoint x="101.97" y="4650" as="targetPoint" />
          </mxGeometry>
        </mxCell>
        <mxCell id="cpMbarF4RQVlycDG_CaR-247" value="BROWSER" style="rounded=1;whiteSpace=wrap;html=1;labelBackgroundColor=none;fillColor=#FAE5C7;strokeColor=#0F8B8D;fontColor=#143642;movable=0;resizable=0;rotatable=0;deletable=0;editable=0;locked=1;connectable=0;" parent="1" vertex="1">
          <mxGeometry x="42.5" y="4770" width="120" height="60" as="geometry" />
        </mxCell>
        <mxCell id="cpMbarF4RQVlycDG_CaR-249" value="" style="line;strokeWidth=2;fillColor=none;align=left;verticalAlign=middle;spacingTop=-1;spacingLeft=3;spacingRight=3;rotatable=0;labelPosition=right;points=[];portConstraint=eastwest;strokeColor=#0F8B8D;dashed=1;dashPattern=12 12;movable=0;resizable=0;deletable=0;editable=0;locked=1;connectable=0;labelBackgroundColor=none;fontColor=#143642;" parent="1" vertex="1">
          <mxGeometry x="-120.5" y="4680" width="860" height="8" as="geometry" />
        </mxCell>
        <mxCell id="cpMbarF4RQVlycDG_CaR-250" value="" style="line;strokeWidth=2;fillColor=none;align=left;verticalAlign=middle;spacingTop=-1;spacingLeft=3;spacingRight=3;rotatable=0;labelPosition=right;points=[];portConstraint=eastwest;strokeColor=#0F8B8D;dashed=1;dashPattern=12 12;movable=0;resizable=0;deletable=0;editable=0;locked=1;connectable=0;labelBackgroundColor=none;fontColor=#143642;" parent="1" vertex="1">
          <mxGeometry x="-120.5" y="4684" width="860" height="8" as="geometry" />
        </mxCell>
      </root>
    </mxGraphModel>
  </diagram>
</mxfile>
